<mxfile host="app.diagrams.net" modified="2023-04-08T00:13:44.069Z" agent="Mozilla/5.0 (Windows NT 10.0; Win64; x64) AppleWebKit/537.36 (KHTML, like Gecko) Chrome/111.0.0.0 Safari/537.36" etag="K9Uhip5GA07Q_8OenTzi" version="21.1.5" type="device">
  <diagram name="Page-1" id="YKi9pks65AhPZEX7jFyc">
    <mxGraphModel dx="1050" dy="1719" grid="1" gridSize="10" guides="1" tooltips="1" connect="1" arrows="1" fold="1" page="1" pageScale="1" pageWidth="850" pageHeight="1100" math="0" shadow="0">
      <root>
        <mxCell id="0" />
        <mxCell id="1" parent="0" />
        <mxCell id="4WFe2CDnD_xLI0Ukkx9i-2" value="Giỏ hàng (tạm thời)" style="rounded=1;whiteSpace=wrap;html=1;" parent="1" vertex="1">
          <mxGeometry x="120" y="180" width="120" height="50" as="geometry" />
        </mxCell>
        <mxCell id="4WFe2CDnD_xLI0Ukkx9i-3" value="Giỏ hàng (sau thanh toán)" style="rounded=1;whiteSpace=wrap;html=1;" parent="1" vertex="1">
          <mxGeometry x="560" y="180" width="120" height="50" as="geometry" />
        </mxCell>
        <mxCell id="4WFe2CDnD_xLI0Ukkx9i-4" value="Sản phẩm" style="rounded=1;whiteSpace=wrap;html=1;" parent="1" vertex="1">
          <mxGeometry x="1080" y="180" width="120" height="50" as="geometry" />
        </mxCell>
        <mxCell id="4WFe2CDnD_xLI0Ukkx9i-5" value="Đơn hàng offline" style="rounded=1;whiteSpace=wrap;html=1;" parent="1" vertex="1">
          <mxGeometry x="260" y="560" width="120" height="60" as="geometry" />
        </mxCell>
        <mxCell id="4WFe2CDnD_xLI0Ukkx9i-6" value="Đơn hàng online" style="rounded=1;whiteSpace=wrap;html=1;" parent="1" vertex="1">
          <mxGeometry x="830" y="560" width="120" height="60" as="geometry" />
        </mxCell>
        <mxCell id="4WFe2CDnD_xLI0Ukkx9i-7" value="Loại sản phẩm" style="rounded=1;whiteSpace=wrap;html=1;" parent="1" vertex="1">
          <mxGeometry x="1275" y="285" width="120" height="60" as="geometry" />
        </mxCell>
        <mxCell id="4WFe2CDnD_xLI0Ukkx9i-8" value="Sản phẩm trong kho" style="rounded=1;whiteSpace=wrap;html=1;" parent="1" vertex="1">
          <mxGeometry x="1090" y="380" width="120" height="60" as="geometry" />
        </mxCell>
        <mxCell id="4WFe2CDnD_xLI0Ukkx9i-9" value="Người dùng" style="rounded=1;whiteSpace=wrap;html=1;" parent="1" vertex="1">
          <mxGeometry x="560" y="400" width="120" height="60" as="geometry" />
        </mxCell>
        <mxCell id="4WFe2CDnD_xLI0Ukkx9i-10" value="Người quản lý" style="rounded=1;whiteSpace=wrap;html=1;" parent="1" vertex="1">
          <mxGeometry x="20" y="382.5" width="120" height="60" as="geometry" />
        </mxCell>
        <mxCell id="4WFe2CDnD_xLI0Ukkx9i-11" value="THUỘC" style="rhombus;whiteSpace=wrap;html=1;" parent="1" vertex="1">
          <mxGeometry x="350" y="172.5" width="80" height="65" as="geometry" />
        </mxCell>
        <mxCell id="4WFe2CDnD_xLI0Ukkx9i-12" value="" style="endArrow=none;html=1;rounded=0;exitX=1;exitY=0.5;exitDx=0;exitDy=0;entryX=0;entryY=0.5;entryDx=0;entryDy=0;" parent="1" source="4WFe2CDnD_xLI0Ukkx9i-2" target="4WFe2CDnD_xLI0Ukkx9i-11" edge="1">
          <mxGeometry width="50" height="50" relative="1" as="geometry">
            <mxPoint x="400" y="320" as="sourcePoint" />
            <mxPoint x="450" y="270" as="targetPoint" />
          </mxGeometry>
        </mxCell>
        <mxCell id="4WFe2CDnD_xLI0Ukkx9i-13" value="" style="endArrow=none;html=1;rounded=0;exitX=1;exitY=0.5;exitDx=0;exitDy=0;entryX=0;entryY=0.5;entryDx=0;entryDy=0;" parent="1" source="4WFe2CDnD_xLI0Ukkx9i-11" target="4WFe2CDnD_xLI0Ukkx9i-3" edge="1">
          <mxGeometry width="50" height="50" relative="1" as="geometry">
            <mxPoint x="400" y="320" as="sourcePoint" />
            <mxPoint x="450" y="270" as="targetPoint" />
          </mxGeometry>
        </mxCell>
        <mxCell id="4WFe2CDnD_xLI0Ukkx9i-15" value="cartId" style="ellipse;whiteSpace=wrap;html=1;aspect=fixed;" parent="1" vertex="1">
          <mxGeometry x="20" y="172.5" width="40" height="40" as="geometry" />
        </mxCell>
        <mxCell id="4WFe2CDnD_xLI0Ukkx9i-16" value="" style="endArrow=classic;html=1;rounded=0;exitX=0;exitY=0.5;exitDx=0;exitDy=0;entryX=1;entryY=0.688;entryDx=0;entryDy=0;entryPerimeter=0;" parent="1" source="4WFe2CDnD_xLI0Ukkx9i-2" target="4WFe2CDnD_xLI0Ukkx9i-15" edge="1">
          <mxGeometry width="50" height="50" relative="1" as="geometry">
            <mxPoint x="400" y="320" as="sourcePoint" />
            <mxPoint x="70" y="210" as="targetPoint" />
          </mxGeometry>
        </mxCell>
        <mxCell id="4WFe2CDnD_xLI0Ukkx9i-18" value="&lt;font style=&quot;font-size: 10px;&quot;&gt;productId&lt;/font&gt;" style="ellipse;whiteSpace=wrap;html=1;aspect=fixed;" parent="1" vertex="1">
          <mxGeometry x="20" y="122.5" width="50" height="50" as="geometry" />
        </mxCell>
        <mxCell id="4WFe2CDnD_xLI0Ukkx9i-19" value="" style="endArrow=classic;html=1;rounded=0;entryX=1;entryY=1;entryDx=0;entryDy=0;exitX=0;exitY=0.25;exitDx=0;exitDy=0;" parent="1" source="4WFe2CDnD_xLI0Ukkx9i-2" target="4WFe2CDnD_xLI0Ukkx9i-18" edge="1">
          <mxGeometry width="50" height="50" relative="1" as="geometry">
            <mxPoint x="400" y="320" as="sourcePoint" />
            <mxPoint x="450" y="270" as="targetPoint" />
          </mxGeometry>
        </mxCell>
        <mxCell id="4WFe2CDnD_xLI0Ukkx9i-20" value="sId" style="ellipse;whiteSpace=wrap;html=1;aspect=fixed;" parent="1" vertex="1">
          <mxGeometry x="50" y="90" width="40" height="40" as="geometry" />
        </mxCell>
        <mxCell id="4WFe2CDnD_xLI0Ukkx9i-21" value="" style="endArrow=classic;html=1;rounded=0;entryX=1;entryY=1;entryDx=0;entryDy=0;exitX=0.097;exitY=0.012;exitDx=0;exitDy=0;exitPerimeter=0;" parent="1" source="4WFe2CDnD_xLI0Ukkx9i-2" target="4WFe2CDnD_xLI0Ukkx9i-20" edge="1">
          <mxGeometry width="50" height="50" relative="1" as="geometry">
            <mxPoint x="120" y="180" as="sourcePoint" />
            <mxPoint x="450" y="270" as="targetPoint" />
          </mxGeometry>
        </mxCell>
        <mxCell id="4WFe2CDnD_xLI0Ukkx9i-22" value="&lt;font style=&quot;font-size: 10px;&quot;&gt;productName&lt;/font&gt;" style="ellipse;whiteSpace=wrap;html=1;aspect=fixed;" parent="1" vertex="1">
          <mxGeometry x="90" y="65" width="70" height="70" as="geometry" />
        </mxCell>
        <mxCell id="4WFe2CDnD_xLI0Ukkx9i-23" value="" style="endArrow=classic;html=1;rounded=0;exitX=0.25;exitY=0;exitDx=0;exitDy=0;entryX=0.5;entryY=1;entryDx=0;entryDy=0;" parent="1" source="4WFe2CDnD_xLI0Ukkx9i-2" target="4WFe2CDnD_xLI0Ukkx9i-22" edge="1">
          <mxGeometry width="50" height="50" relative="1" as="geometry">
            <mxPoint x="400" y="320" as="sourcePoint" />
            <mxPoint x="450" y="270" as="targetPoint" />
          </mxGeometry>
        </mxCell>
        <mxCell id="4WFe2CDnD_xLI0Ukkx9i-24" value="price" style="ellipse;whiteSpace=wrap;html=1;aspect=fixed;" parent="1" vertex="1">
          <mxGeometry x="160" y="65" width="40" height="40" as="geometry" />
        </mxCell>
        <mxCell id="4WFe2CDnD_xLI0Ukkx9i-25" value="" style="endArrow=classic;html=1;rounded=0;exitX=0.5;exitY=0;exitDx=0;exitDy=0;entryX=0.5;entryY=1;entryDx=0;entryDy=0;" parent="1" source="4WFe2CDnD_xLI0Ukkx9i-2" target="4WFe2CDnD_xLI0Ukkx9i-24" edge="1">
          <mxGeometry width="50" height="50" relative="1" as="geometry">
            <mxPoint x="400" y="320" as="sourcePoint" />
            <mxPoint x="450" y="270" as="targetPoint" />
          </mxGeometry>
        </mxCell>
        <mxCell id="4WFe2CDnD_xLI0Ukkx9i-26" value="&lt;font style=&quot;font-size: 10px;&quot;&gt;quantity&lt;/font&gt;" style="ellipse;whiteSpace=wrap;html=1;aspect=fixed;" parent="1" vertex="1">
          <mxGeometry x="200" y="65" width="40" height="40" as="geometry" />
        </mxCell>
        <mxCell id="4WFe2CDnD_xLI0Ukkx9i-27" value="" style="endArrow=classic;html=1;rounded=0;exitX=0.75;exitY=0;exitDx=0;exitDy=0;entryX=0.5;entryY=1;entryDx=0;entryDy=0;" parent="1" source="4WFe2CDnD_xLI0Ukkx9i-2" target="4WFe2CDnD_xLI0Ukkx9i-26" edge="1">
          <mxGeometry width="50" height="50" relative="1" as="geometry">
            <mxPoint x="400" y="320" as="sourcePoint" />
            <mxPoint x="450" y="270" as="targetPoint" />
          </mxGeometry>
        </mxCell>
        <mxCell id="4WFe2CDnD_xLI0Ukkx9i-28" value="&lt;font style=&quot;font-size: 10px;&quot;&gt;image&lt;/font&gt;" style="ellipse;whiteSpace=wrap;html=1;aspect=fixed;" parent="1" vertex="1">
          <mxGeometry x="240" y="70" width="40" height="40" as="geometry" />
        </mxCell>
        <mxCell id="4WFe2CDnD_xLI0Ukkx9i-29" value="" style="endArrow=classic;html=1;rounded=0;exitX=0.917;exitY=-0.004;exitDx=0;exitDy=0;entryX=0.5;entryY=1;entryDx=0;entryDy=0;exitPerimeter=0;" parent="1" source="4WFe2CDnD_xLI0Ukkx9i-2" target="4WFe2CDnD_xLI0Ukkx9i-28" edge="1">
          <mxGeometry width="50" height="50" relative="1" as="geometry">
            <mxPoint x="400" y="320" as="sourcePoint" />
            <mxPoint x="450" y="270" as="targetPoint" />
          </mxGeometry>
        </mxCell>
        <mxCell id="4WFe2CDnD_xLI0Ukkx9i-30" value="" style="endArrow=classic;html=1;rounded=0;exitX=0.996;exitY=0.109;exitDx=0;exitDy=0;exitPerimeter=0;entryX=0;entryY=1;entryDx=0;entryDy=0;" parent="1" source="4WFe2CDnD_xLI0Ukkx9i-2" target="4WFe2CDnD_xLI0Ukkx9i-32" edge="1">
          <mxGeometry width="50" height="50" relative="1" as="geometry">
            <mxPoint x="400" y="320" as="sourcePoint" />
            <mxPoint x="290" y="140" as="targetPoint" />
          </mxGeometry>
        </mxCell>
        <mxCell id="4WFe2CDnD_xLI0Ukkx9i-32" value="&lt;font style=&quot;font-size: 10px;&quot;&gt;code_cart_online&lt;/font&gt;" style="ellipse;whiteSpace=wrap;html=1;aspect=fixed;" parent="1" vertex="1">
          <mxGeometry x="280" y="60" width="80" height="80" as="geometry" />
        </mxCell>
        <mxCell id="4WFe2CDnD_xLI0Ukkx9i-35" value="&lt;font style=&quot;font-size: 10px;&quot;&gt;cartId_access&lt;/font&gt;" style="ellipse;whiteSpace=wrap;html=1;aspect=fixed;" parent="1" vertex="1">
          <mxGeometry x="715" width="65" height="65" as="geometry" />
        </mxCell>
        <mxCell id="4WFe2CDnD_xLI0Ukkx9i-36" value="cartId" style="ellipse;whiteSpace=wrap;html=1;aspect=fixed;" parent="1" vertex="1">
          <mxGeometry x="450" y="150" width="40" height="40" as="geometry" />
        </mxCell>
        <mxCell id="4WFe2CDnD_xLI0Ukkx9i-37" value="" style="endArrow=classic;html=1;rounded=0;exitX=0;exitY=0.25;exitDx=0;exitDy=0;entryX=1;entryY=0.5;entryDx=0;entryDy=0;" parent="1" source="4WFe2CDnD_xLI0Ukkx9i-3" target="4WFe2CDnD_xLI0Ukkx9i-36" edge="1">
          <mxGeometry width="50" height="50" relative="1" as="geometry">
            <mxPoint x="420" y="230" as="sourcePoint" />
            <mxPoint x="470" y="180" as="targetPoint" />
          </mxGeometry>
        </mxCell>
        <mxCell id="4WFe2CDnD_xLI0Ukkx9i-38" value="sId" style="ellipse;whiteSpace=wrap;html=1;aspect=fixed;" parent="1" vertex="1">
          <mxGeometry x="450" y="110" width="40" height="40" as="geometry" />
        </mxCell>
        <mxCell id="4WFe2CDnD_xLI0Ukkx9i-39" value="" style="endArrow=classic;html=1;rounded=0;entryX=1;entryY=0.5;entryDx=0;entryDy=0;exitX=0.108;exitY=-0.013;exitDx=0;exitDy=0;exitPerimeter=0;" parent="1" source="4WFe2CDnD_xLI0Ukkx9i-3" target="4WFe2CDnD_xLI0Ukkx9i-38" edge="1">
          <mxGeometry width="50" height="50" relative="1" as="geometry">
            <mxPoint x="610" y="120" as="sourcePoint" />
            <mxPoint x="470" y="180" as="targetPoint" />
          </mxGeometry>
        </mxCell>
        <mxCell id="4WFe2CDnD_xLI0Ukkx9i-40" value="&lt;font style=&quot;font-size: 10px;&quot;&gt;productId&lt;/font&gt;" style="ellipse;whiteSpace=wrap;html=1;aspect=fixed;" parent="1" vertex="1">
          <mxGeometry x="450" y="60" width="50" height="50" as="geometry" />
        </mxCell>
        <mxCell id="4WFe2CDnD_xLI0Ukkx9i-41" value="" style="endArrow=classic;html=1;rounded=0;exitX=0.25;exitY=0;exitDx=0;exitDy=0;entryX=1;entryY=1;entryDx=0;entryDy=0;" parent="1" source="4WFe2CDnD_xLI0Ukkx9i-3" target="4WFe2CDnD_xLI0Ukkx9i-40" edge="1">
          <mxGeometry width="50" height="50" relative="1" as="geometry">
            <mxPoint x="410" y="110" as="sourcePoint" />
            <mxPoint x="460" y="60" as="targetPoint" />
          </mxGeometry>
        </mxCell>
        <mxCell id="4WFe2CDnD_xLI0Ukkx9i-42" value="price" style="ellipse;whiteSpace=wrap;html=1;aspect=fixed;" parent="1" vertex="1">
          <mxGeometry x="520" width="40" height="40" as="geometry" />
        </mxCell>
        <mxCell id="4WFe2CDnD_xLI0Ukkx9i-43" value="&lt;font style=&quot;font-size: 10px;&quot;&gt;productName&lt;/font&gt;" style="ellipse;whiteSpace=wrap;html=1;aspect=fixed;" parent="1" vertex="1">
          <mxGeometry x="450" y="-10" width="70" height="70" as="geometry" />
        </mxCell>
        <mxCell id="4WFe2CDnD_xLI0Ukkx9i-44" value="" style="endArrow=classic;html=1;rounded=0;exitX=0.406;exitY=-0.024;exitDx=0;exitDy=0;entryX=1;entryY=1;entryDx=0;entryDy=0;exitPerimeter=0;" parent="1" source="4WFe2CDnD_xLI0Ukkx9i-3" target="4WFe2CDnD_xLI0Ukkx9i-43" edge="1">
          <mxGeometry width="50" height="50" relative="1" as="geometry">
            <mxPoint x="410" y="110" as="sourcePoint" />
            <mxPoint x="460" y="60" as="targetPoint" />
          </mxGeometry>
        </mxCell>
        <mxCell id="4WFe2CDnD_xLI0Ukkx9i-45" value="" style="endArrow=classic;html=1;rounded=0;exitX=0.5;exitY=0;exitDx=0;exitDy=0;entryX=0.5;entryY=1;entryDx=0;entryDy=0;" parent="1" source="4WFe2CDnD_xLI0Ukkx9i-3" target="4WFe2CDnD_xLI0Ukkx9i-42" edge="1">
          <mxGeometry width="50" height="50" relative="1" as="geometry">
            <mxPoint x="410" y="110" as="sourcePoint" />
            <mxPoint x="460" y="60" as="targetPoint" />
          </mxGeometry>
        </mxCell>
        <mxCell id="4WFe2CDnD_xLI0Ukkx9i-46" value="&lt;font style=&quot;font-size: 10px;&quot;&gt;quantity&lt;/font&gt;" style="ellipse;whiteSpace=wrap;html=1;aspect=fixed;" parent="1" vertex="1">
          <mxGeometry x="560" width="40" height="40" as="geometry" />
        </mxCell>
        <mxCell id="4WFe2CDnD_xLI0Ukkx9i-47" value="" style="endArrow=classic;html=1;rounded=0;exitX=0.593;exitY=-0.007;exitDx=0;exitDy=0;entryX=0.5;entryY=1;entryDx=0;entryDy=0;exitPerimeter=0;" parent="1" source="4WFe2CDnD_xLI0Ukkx9i-3" target="4WFe2CDnD_xLI0Ukkx9i-46" edge="1">
          <mxGeometry width="50" height="50" relative="1" as="geometry">
            <mxPoint x="410" y="110" as="sourcePoint" />
            <mxPoint x="460" y="60" as="targetPoint" />
          </mxGeometry>
        </mxCell>
        <mxCell id="4WFe2CDnD_xLI0Ukkx9i-48" value="&lt;font style=&quot;font-size: 10px;&quot;&gt;image&lt;/font&gt;" style="ellipse;whiteSpace=wrap;html=1;aspect=fixed;" parent="1" vertex="1">
          <mxGeometry x="600" width="40" height="40" as="geometry" />
        </mxCell>
        <mxCell id="4WFe2CDnD_xLI0Ukkx9i-49" value="" style="endArrow=classic;html=1;rounded=0;exitX=0.707;exitY=-0.002;exitDx=0;exitDy=0;entryX=0.5;entryY=1;entryDx=0;entryDy=0;exitPerimeter=0;" parent="1" source="4WFe2CDnD_xLI0Ukkx9i-3" target="4WFe2CDnD_xLI0Ukkx9i-48" edge="1">
          <mxGeometry width="50" height="50" relative="1" as="geometry">
            <mxPoint x="410" y="110" as="sourcePoint" />
            <mxPoint x="460" y="60" as="targetPoint" />
          </mxGeometry>
        </mxCell>
        <mxCell id="4WFe2CDnD_xLI0Ukkx9i-50" value="&lt;font style=&quot;font-size: 9px;&quot;&gt;code_cart_online&lt;/font&gt;" style="ellipse;whiteSpace=wrap;html=1;aspect=fixed;" parent="1" vertex="1">
          <mxGeometry x="640" y="-15" width="75" height="75" as="geometry" />
        </mxCell>
        <mxCell id="4WFe2CDnD_xLI0Ukkx9i-51" value="" style="endArrow=classic;html=1;rounded=0;entryX=0.357;entryY=1.003;entryDx=0;entryDy=0;exitX=0.793;exitY=0.002;exitDx=0;exitDy=0;exitPerimeter=0;entryPerimeter=0;" parent="1" source="4WFe2CDnD_xLI0Ukkx9i-3" target="4WFe2CDnD_xLI0Ukkx9i-50" edge="1">
          <mxGeometry width="50" height="50" relative="1" as="geometry">
            <mxPoint x="300" y="140" as="sourcePoint" />
            <mxPoint x="350" y="90" as="targetPoint" />
          </mxGeometry>
        </mxCell>
        <mxCell id="4WFe2CDnD_xLI0Ukkx9i-52" value="" style="endArrow=classic;html=1;rounded=0;entryX=0;entryY=1;entryDx=0;entryDy=0;exitX=0.857;exitY=-0.007;exitDx=0;exitDy=0;exitPerimeter=0;" parent="1" source="4WFe2CDnD_xLI0Ukkx9i-3" target="4WFe2CDnD_xLI0Ukkx9i-35" edge="1">
          <mxGeometry width="50" height="50" relative="1" as="geometry">
            <mxPoint x="600" y="180" as="sourcePoint" />
            <mxPoint x="640" y="140" as="targetPoint" />
          </mxGeometry>
        </mxCell>
        <mxCell id="4WFe2CDnD_xLI0Ukkx9i-53" value="&lt;font style=&quot;font-size: 10px;&quot;&gt;paid_type&lt;/font&gt;" style="ellipse;whiteSpace=wrap;html=1;aspect=fixed;" parent="1" vertex="1">
          <mxGeometry x="780" y="30" width="50" height="50" as="geometry" />
        </mxCell>
        <mxCell id="4WFe2CDnD_xLI0Ukkx9i-54" value="" style="endArrow=classic;html=1;rounded=0;exitX=0.952;exitY=-0.002;exitDx=0;exitDy=0;entryX=0;entryY=1;entryDx=0;entryDy=0;exitPerimeter=0;" parent="1" source="4WFe2CDnD_xLI0Ukkx9i-3" target="4WFe2CDnD_xLI0Ukkx9i-53" edge="1">
          <mxGeometry width="50" height="50" relative="1" as="geometry">
            <mxPoint x="570" y="260" as="sourcePoint" />
            <mxPoint x="620" y="210" as="targetPoint" />
          </mxGeometry>
        </mxCell>
        <mxCell id="4WFe2CDnD_xLI0Ukkx9i-55" value="&lt;font style=&quot;font-size: 10px;&quot;&gt;paid_date_time&lt;/font&gt;" style="ellipse;whiteSpace=wrap;html=1;aspect=fixed;" parent="1" vertex="1">
          <mxGeometry x="860" y="65" width="75" height="75" as="geometry" />
        </mxCell>
        <mxCell id="4WFe2CDnD_xLI0Ukkx9i-57" value="" style="endArrow=classic;html=1;rounded=0;entryX=0.038;entryY=0.68;entryDx=0;entryDy=0;entryPerimeter=0;" parent="1" target="4WFe2CDnD_xLI0Ukkx9i-55" edge="1">
          <mxGeometry width="50" height="50" relative="1" as="geometry">
            <mxPoint x="680" y="190" as="sourcePoint" />
            <mxPoint x="610" y="70" as="targetPoint" />
          </mxGeometry>
        </mxCell>
        <mxCell id="4WFe2CDnD_xLI0Ukkx9i-58" value="&lt;font style=&quot;font-size: 10px;&quot;&gt;regisId&lt;/font&gt;" style="ellipse;whiteSpace=wrap;html=1;aspect=fixed;" parent="1" vertex="1">
          <mxGeometry x="820" y="65" width="40" height="40" as="geometry" />
        </mxCell>
        <mxCell id="4WFe2CDnD_xLI0Ukkx9i-59" value="" style="endArrow=classic;html=1;rounded=0;exitX=0.981;exitY=0.059;exitDx=0;exitDy=0;entryX=0;entryY=1;entryDx=0;entryDy=0;exitPerimeter=0;" parent="1" source="4WFe2CDnD_xLI0Ukkx9i-3" target="4WFe2CDnD_xLI0Ukkx9i-58" edge="1">
          <mxGeometry width="50" height="50" relative="1" as="geometry">
            <mxPoint x="590" y="80" as="sourcePoint" />
            <mxPoint x="640" y="30" as="targetPoint" />
          </mxGeometry>
        </mxCell>
        <mxCell id="4WFe2CDnD_xLI0Ukkx9i-63" value="CÓ" style="rhombus;whiteSpace=wrap;html=1;" parent="1" vertex="1">
          <mxGeometry x="810" y="172.5" width="80" height="65" as="geometry" />
        </mxCell>
        <mxCell id="4WFe2CDnD_xLI0Ukkx9i-65" value="" style="endArrow=none;html=1;rounded=0;entryX=0;entryY=0.5;entryDx=0;entryDy=0;exitX=1;exitY=0.5;exitDx=0;exitDy=0;" parent="1" source="4WFe2CDnD_xLI0Ukkx9i-3" target="4WFe2CDnD_xLI0Ukkx9i-63" edge="1">
          <mxGeometry width="50" height="50" relative="1" as="geometry">
            <mxPoint x="680" y="198" as="sourcePoint" />
            <mxPoint x="590" y="200" as="targetPoint" />
          </mxGeometry>
        </mxCell>
        <mxCell id="4WFe2CDnD_xLI0Ukkx9i-66" value="" style="endArrow=none;html=1;rounded=0;entryX=0;entryY=0.5;entryDx=0;entryDy=0;exitX=1;exitY=0.5;exitDx=0;exitDy=0;" parent="1" source="4WFe2CDnD_xLI0Ukkx9i-63" target="4WFe2CDnD_xLI0Ukkx9i-4" edge="1">
          <mxGeometry width="50" height="50" relative="1" as="geometry">
            <mxPoint x="720" y="230" as="sourcePoint" />
            <mxPoint x="770" y="180" as="targetPoint" />
          </mxGeometry>
        </mxCell>
        <mxCell id="4WFe2CDnD_xLI0Ukkx9i-67" value="&lt;font style=&quot;font-size: 10px;&quot;&gt;productId&lt;/font&gt;" style="ellipse;whiteSpace=wrap;html=1;aspect=fixed;" parent="1" vertex="1">
          <mxGeometry x="1000" y="135" width="50" height="50" as="geometry" />
        </mxCell>
        <mxCell id="4WFe2CDnD_xLI0Ukkx9i-70" value="" style="endArrow=classic;html=1;rounded=0;exitX=0;exitY=0.25;exitDx=0;exitDy=0;entryX=0.978;entryY=0.718;entryDx=0;entryDy=0;entryPerimeter=0;" parent="1" source="4WFe2CDnD_xLI0Ukkx9i-4" target="4WFe2CDnD_xLI0Ukkx9i-67" edge="1">
          <mxGeometry width="50" height="50" relative="1" as="geometry">
            <mxPoint x="720" y="230" as="sourcePoint" />
            <mxPoint x="770" y="180" as="targetPoint" />
          </mxGeometry>
        </mxCell>
        <mxCell id="4WFe2CDnD_xLI0Ukkx9i-71" value="&lt;font style=&quot;font-size: 10px;&quot;&gt;productName&lt;/font&gt;" style="ellipse;whiteSpace=wrap;html=1;aspect=fixed;" parent="1" vertex="1">
          <mxGeometry x="995" y="75" width="60" height="60" as="geometry" />
        </mxCell>
        <mxCell id="4WFe2CDnD_xLI0Ukkx9i-72" value="" style="endArrow=classic;html=1;rounded=0;exitX=0.026;exitY=0.038;exitDx=0;exitDy=0;entryX=1;entryY=1;entryDx=0;entryDy=0;exitPerimeter=0;" parent="1" source="4WFe2CDnD_xLI0Ukkx9i-4" target="4WFe2CDnD_xLI0Ukkx9i-71" edge="1">
          <mxGeometry width="50" height="50" relative="1" as="geometry">
            <mxPoint x="720" y="230" as="sourcePoint" />
            <mxPoint x="770" y="180" as="targetPoint" />
          </mxGeometry>
        </mxCell>
        <mxCell id="4WFe2CDnD_xLI0Ukkx9i-73" value="catId" style="ellipse;whiteSpace=wrap;html=1;aspect=fixed;" parent="1" vertex="1">
          <mxGeometry x="1040" y="50" width="40" height="40" as="geometry" />
        </mxCell>
        <mxCell id="4WFe2CDnD_xLI0Ukkx9i-74" value="" style="endArrow=classic;html=1;rounded=0;entryX=0.66;entryY=1.006;entryDx=0;entryDy=0;exitX=0.166;exitY=-0.003;exitDx=0;exitDy=0;exitPerimeter=0;entryPerimeter=0;" parent="1" source="4WFe2CDnD_xLI0Ukkx9i-4" target="4WFe2CDnD_xLI0Ukkx9i-73" edge="1">
          <mxGeometry width="50" height="50" relative="1" as="geometry">
            <mxPoint x="1100" y="170" as="sourcePoint" />
            <mxPoint x="940" y="-130" as="targetPoint" />
          </mxGeometry>
        </mxCell>
        <mxCell id="4WFe2CDnD_xLI0Ukkx9i-75" value="&lt;font style=&quot;font-size: 10px;&quot;&gt;product_desc&lt;/font&gt;" style="ellipse;whiteSpace=wrap;html=1;aspect=fixed;" parent="1" vertex="1">
          <mxGeometry x="1080" y="30" width="60" height="60" as="geometry" />
        </mxCell>
        <mxCell id="4WFe2CDnD_xLI0Ukkx9i-76" value="" style="endArrow=classic;html=1;rounded=0;exitX=0.25;exitY=0;exitDx=0;exitDy=0;entryX=0.5;entryY=1;entryDx=0;entryDy=0;" parent="1" source="4WFe2CDnD_xLI0Ukkx9i-4" target="4WFe2CDnD_xLI0Ukkx9i-75" edge="1">
          <mxGeometry width="50" height="50" relative="1" as="geometry">
            <mxPoint x="1030" y="210" as="sourcePoint" />
            <mxPoint x="1080" y="160" as="targetPoint" />
          </mxGeometry>
        </mxCell>
        <mxCell id="4WFe2CDnD_xLI0Ukkx9i-77" value="type" style="ellipse;whiteSpace=wrap;html=1;aspect=fixed;" parent="1" vertex="1">
          <mxGeometry x="1140" y="40" width="40" height="40" as="geometry" />
        </mxCell>
        <mxCell id="4WFe2CDnD_xLI0Ukkx9i-78" value="price" style="ellipse;whiteSpace=wrap;html=1;aspect=fixed;" parent="1" vertex="1">
          <mxGeometry x="1180" y="50" width="40" height="40" as="geometry" />
        </mxCell>
        <mxCell id="4WFe2CDnD_xLI0Ukkx9i-79" value="&lt;font style=&quot;font-size: 10px;&quot;&gt;image&lt;/font&gt;" style="ellipse;whiteSpace=wrap;html=1;aspect=fixed;" parent="1" vertex="1">
          <mxGeometry x="1220" y="60" width="40" height="40" as="geometry" />
        </mxCell>
        <mxCell id="4WFe2CDnD_xLI0Ukkx9i-80" value="&lt;span style=&quot;font-size: 10px;&quot;&gt;export_date&lt;/span&gt;" style="ellipse;whiteSpace=wrap;html=1;aspect=fixed;" parent="1" vertex="1">
          <mxGeometry x="1300" y="100" width="60" height="60" as="geometry" />
        </mxCell>
        <mxCell id="4WFe2CDnD_xLI0Ukkx9i-81" value="&lt;font style=&quot;font-size: 10px;&quot;&gt;solg_from_&lt;br&gt;storage&lt;/font&gt;" style="ellipse;whiteSpace=wrap;html=1;aspect=fixed;" parent="1" vertex="1">
          <mxGeometry x="1260" y="70" width="50" height="50" as="geometry" />
        </mxCell>
        <mxCell id="4WFe2CDnD_xLI0Ukkx9i-82" value="" style="endArrow=classic;html=1;rounded=0;entryX=0.5;entryY=1;entryDx=0;entryDy=0;exitX=0.457;exitY=0.006;exitDx=0;exitDy=0;exitPerimeter=0;" parent="1" source="4WFe2CDnD_xLI0Ukkx9i-4" target="4WFe2CDnD_xLI0Ukkx9i-77" edge="1">
          <mxGeometry width="50" height="50" relative="1" as="geometry">
            <mxPoint x="1140" y="170" as="sourcePoint" />
            <mxPoint x="1020" y="40" as="targetPoint" />
          </mxGeometry>
        </mxCell>
        <mxCell id="4WFe2CDnD_xLI0Ukkx9i-83" value="" style="endArrow=classic;html=1;rounded=0;exitX=0.75;exitY=0;exitDx=0;exitDy=0;entryX=0.5;entryY=1;entryDx=0;entryDy=0;" parent="1" source="4WFe2CDnD_xLI0Ukkx9i-4" target="4WFe2CDnD_xLI0Ukkx9i-78" edge="1">
          <mxGeometry width="50" height="50" relative="1" as="geometry">
            <mxPoint x="970" y="90" as="sourcePoint" />
            <mxPoint x="1020" y="40" as="targetPoint" />
          </mxGeometry>
        </mxCell>
        <mxCell id="4WFe2CDnD_xLI0Ukkx9i-84" value="" style="endArrow=classic;html=1;rounded=0;entryX=0.5;entryY=1;entryDx=0;entryDy=0;exitX=0.937;exitY=0.012;exitDx=0;exitDy=0;exitPerimeter=0;" parent="1" source="4WFe2CDnD_xLI0Ukkx9i-4" target="4WFe2CDnD_xLI0Ukkx9i-79" edge="1">
          <mxGeometry width="50" height="50" relative="1" as="geometry">
            <mxPoint x="1100" y="130" as="sourcePoint" />
            <mxPoint x="1150" y="80" as="targetPoint" />
          </mxGeometry>
        </mxCell>
        <mxCell id="4WFe2CDnD_xLI0Ukkx9i-85" value="" style="endArrow=classic;html=1;rounded=0;entryX=0;entryY=1;entryDx=0;entryDy=0;exitX=0.999;exitY=0.07;exitDx=0;exitDy=0;exitPerimeter=0;" parent="1" source="4WFe2CDnD_xLI0Ukkx9i-4" target="4WFe2CDnD_xLI0Ukkx9i-81" edge="1">
          <mxGeometry width="50" height="50" relative="1" as="geometry">
            <mxPoint x="1100" y="170" as="sourcePoint" />
            <mxPoint x="1150" y="120" as="targetPoint" />
          </mxGeometry>
        </mxCell>
        <mxCell id="4WFe2CDnD_xLI0Ukkx9i-86" value="" style="endArrow=classic;html=1;rounded=0;exitX=1.007;exitY=0.198;exitDx=0;exitDy=0;exitPerimeter=0;entryX=0;entryY=0.667;entryDx=0;entryDy=0;entryPerimeter=0;" parent="1" source="4WFe2CDnD_xLI0Ukkx9i-4" target="4WFe2CDnD_xLI0Ukkx9i-80" edge="1">
          <mxGeometry width="50" height="50" relative="1" as="geometry">
            <mxPoint x="1100" y="170" as="sourcePoint" />
            <mxPoint x="1150" y="120" as="targetPoint" />
          </mxGeometry>
        </mxCell>
        <mxCell id="4WFe2CDnD_xLI0Ukkx9i-87" value="CÓ" style="rhombus;whiteSpace=wrap;html=1;" parent="1" vertex="1">
          <mxGeometry x="580" y="280" width="80" height="65" as="geometry" />
        </mxCell>
        <mxCell id="4WFe2CDnD_xLI0Ukkx9i-88" value="" style="endArrow=none;html=1;rounded=0;exitX=0.5;exitY=0;exitDx=0;exitDy=0;entryX=0.5;entryY=1;entryDx=0;entryDy=0;" parent="1" source="4WFe2CDnD_xLI0Ukkx9i-87" target="4WFe2CDnD_xLI0Ukkx9i-3" edge="1">
          <mxGeometry width="50" height="50" relative="1" as="geometry">
            <mxPoint x="600" y="240" as="sourcePoint" />
            <mxPoint x="650" y="190" as="targetPoint" />
          </mxGeometry>
        </mxCell>
        <mxCell id="4WFe2CDnD_xLI0Ukkx9i-89" value="" style="endArrow=none;html=1;rounded=0;entryX=0.5;entryY=0;entryDx=0;entryDy=0;exitX=0.5;exitY=1;exitDx=0;exitDy=0;" parent="1" source="4WFe2CDnD_xLI0Ukkx9i-87" target="4WFe2CDnD_xLI0Ukkx9i-9" edge="1">
          <mxGeometry width="50" height="50" relative="1" as="geometry">
            <mxPoint x="600" y="240" as="sourcePoint" />
            <mxPoint x="650" y="190" as="targetPoint" />
          </mxGeometry>
        </mxCell>
        <mxCell id="4WFe2CDnD_xLI0Ukkx9i-90" value="CÓ" style="rhombus;whiteSpace=wrap;html=1;" parent="1" vertex="1">
          <mxGeometry x="280" y="410" width="80" height="65" as="geometry" />
        </mxCell>
        <mxCell id="4WFe2CDnD_xLI0Ukkx9i-91" value="CÓ" style="rhombus;whiteSpace=wrap;html=1;" parent="1" vertex="1">
          <mxGeometry x="850" y="410" width="80" height="65" as="geometry" />
        </mxCell>
        <mxCell id="4WFe2CDnD_xLI0Ukkx9i-92" value="" style="endArrow=none;html=1;rounded=0;exitX=1;exitY=0.5;exitDx=0;exitDy=0;entryX=-0.004;entryY=0.713;entryDx=0;entryDy=0;entryPerimeter=0;" parent="1" source="4WFe2CDnD_xLI0Ukkx9i-90" target="4WFe2CDnD_xLI0Ukkx9i-9" edge="1">
          <mxGeometry width="50" height="50" relative="1" as="geometry">
            <mxPoint x="600" y="380" as="sourcePoint" />
            <mxPoint x="650" y="330" as="targetPoint" />
          </mxGeometry>
        </mxCell>
        <mxCell id="4WFe2CDnD_xLI0Ukkx9i-93" value="" style="endArrow=none;html=1;rounded=0;exitX=1.002;exitY=0.709;exitDx=0;exitDy=0;exitPerimeter=0;entryX=0;entryY=0.5;entryDx=0;entryDy=0;" parent="1" source="4WFe2CDnD_xLI0Ukkx9i-9" target="4WFe2CDnD_xLI0Ukkx9i-91" edge="1">
          <mxGeometry width="50" height="50" relative="1" as="geometry">
            <mxPoint x="750" y="480" as="sourcePoint" />
            <mxPoint x="800" y="430" as="targetPoint" />
          </mxGeometry>
        </mxCell>
        <mxCell id="4WFe2CDnD_xLI0Ukkx9i-94" value="" style="endArrow=none;html=1;rounded=0;entryX=0.5;entryY=1;entryDx=0;entryDy=0;exitX=0.5;exitY=0;exitDx=0;exitDy=0;" parent="1" source="4WFe2CDnD_xLI0Ukkx9i-5" target="4WFe2CDnD_xLI0Ukkx9i-90" edge="1">
          <mxGeometry width="50" height="50" relative="1" as="geometry">
            <mxPoint x="510" y="480" as="sourcePoint" />
            <mxPoint x="560" y="430" as="targetPoint" />
          </mxGeometry>
        </mxCell>
        <mxCell id="4WFe2CDnD_xLI0Ukkx9i-95" value="" style="endArrow=none;html=1;rounded=0;entryX=0.5;entryY=0;entryDx=0;entryDy=0;exitX=0.5;exitY=1;exitDx=0;exitDy=0;" parent="1" source="4WFe2CDnD_xLI0Ukkx9i-91" target="4WFe2CDnD_xLI0Ukkx9i-6" edge="1">
          <mxGeometry width="50" height="50" relative="1" as="geometry">
            <mxPoint x="980" y="480" as="sourcePoint" />
            <mxPoint x="840" y="430" as="targetPoint" />
          </mxGeometry>
        </mxCell>
        <mxCell id="4WFe2CDnD_xLI0Ukkx9i-112" value="&lt;font style=&quot;font-size: 12px;&quot;&gt;regisId&lt;/font&gt;" style="ellipse;whiteSpace=wrap;html=1;aspect=fixed;" parent="1" vertex="1">
          <mxGeometry x="430" y="450" width="40" height="40" as="geometry" />
        </mxCell>
        <mxCell id="4WFe2CDnD_xLI0Ukkx9i-116" value="&lt;font style=&quot;font-size: 12px;&quot;&gt;username&lt;/font&gt;" style="ellipse;whiteSpace=wrap;html=1;aspect=fixed;" parent="1" vertex="1">
          <mxGeometry x="700" y="310" width="60" height="60" as="geometry" />
        </mxCell>
        <mxCell id="4WFe2CDnD_xLI0Ukkx9i-117" value="&lt;font style=&quot;font-size: 12px;&quot;&gt;useracc&lt;/font&gt;" style="ellipse;whiteSpace=wrap;html=1;aspect=fixed;" parent="1" vertex="1">
          <mxGeometry x="450" y="500" width="45" height="45" as="geometry" />
        </mxCell>
        <mxCell id="4WFe2CDnD_xLI0Ukkx9i-118" value="&lt;font style=&quot;font-size: 12px;&quot;&gt;userpass&lt;/font&gt;" style="ellipse;whiteSpace=wrap;html=1;aspect=fixed;" parent="1" vertex="1">
          <mxGeometry x="505" y="520" width="55" height="55" as="geometry" />
        </mxCell>
        <mxCell id="4WFe2CDnD_xLI0Ukkx9i-119" value="&lt;font style=&quot;font-size: 12px;&quot;&gt;sdt&lt;/font&gt;" style="ellipse;whiteSpace=wrap;html=1;aspect=fixed;" parent="1" vertex="1">
          <mxGeometry x="570" y="535" width="45" height="45" as="geometry" />
        </mxCell>
        <mxCell id="4WFe2CDnD_xLI0Ukkx9i-121" value="&lt;font style=&quot;font-size: 12px;&quot;&gt;email&lt;/font&gt;" style="ellipse;whiteSpace=wrap;html=1;aspect=fixed;" parent="1" vertex="1">
          <mxGeometry x="620" y="535" width="45" height="45" as="geometry" />
        </mxCell>
        <mxCell id="4WFe2CDnD_xLI0Ukkx9i-124" value="&lt;font style=&quot;font-size: 12px;&quot;&gt;diachi&lt;/font&gt;" style="ellipse;whiteSpace=wrap;html=1;aspect=fixed;" parent="1" vertex="1">
          <mxGeometry x="670" y="535" width="45" height="45" as="geometry" />
        </mxCell>
        <mxCell id="4WFe2CDnD_xLI0Ukkx9i-125" value="&lt;font style=&quot;font-size: 12px;&quot;&gt;cmnd&lt;/font&gt;" style="ellipse;whiteSpace=wrap;html=1;aspect=fixed;" parent="1" vertex="1">
          <mxGeometry x="760" y="460" width="40" height="40" as="geometry" />
        </mxCell>
        <mxCell id="4WFe2CDnD_xLI0Ukkx9i-126" value="&lt;font style=&quot;font-size: 12px;&quot;&gt;gioitinh&lt;/font&gt;" style="ellipse;whiteSpace=wrap;html=1;aspect=fixed;" parent="1" vertex="1">
          <mxGeometry x="725" y="510" width="45" height="45" as="geometry" />
        </mxCell>
        <mxCell id="4WFe2CDnD_xLI0Ukkx9i-128" value="&lt;font style=&quot;font-size: 12px;&quot;&gt;ngaysinh&lt;/font&gt;" style="ellipse;whiteSpace=wrap;html=1;aspect=fixed;" parent="1" vertex="1">
          <mxGeometry x="480" y="310" width="50" height="50" as="geometry" />
        </mxCell>
        <mxCell id="4WFe2CDnD_xLI0Ukkx9i-129" value="&lt;font style=&quot;font-size: 12px;&quot;&gt;image&lt;/font&gt;" style="ellipse;whiteSpace=wrap;html=1;aspect=fixed;" parent="1" vertex="1">
          <mxGeometry x="770" y="370" width="40" height="40" as="geometry" />
        </mxCell>
        <mxCell id="4WFe2CDnD_xLI0Ukkx9i-130" value="&lt;font style=&quot;font-size: 12px;&quot;&gt;regis_date&lt;/font&gt;" style="ellipse;whiteSpace=wrap;html=1;aspect=fixed;" parent="1" vertex="1">
          <mxGeometry x="420" y="360" width="60" height="60" as="geometry" />
        </mxCell>
        <mxCell id="4WFe2CDnD_xLI0Ukkx9i-131" value="" style="endArrow=classic;html=1;rounded=0;entryX=1;entryY=0;entryDx=0;entryDy=0;" parent="1" target="4WFe2CDnD_xLI0Ukkx9i-112" edge="1">
          <mxGeometry width="50" height="50" relative="1" as="geometry">
            <mxPoint x="560" y="450" as="sourcePoint" />
            <mxPoint x="670" y="340" as="targetPoint" />
          </mxGeometry>
        </mxCell>
        <mxCell id="4WFe2CDnD_xLI0Ukkx9i-132" value="" style="endArrow=classic;html=1;rounded=0;exitX=0.007;exitY=0.923;exitDx=0;exitDy=0;exitPerimeter=0;entryX=0.5;entryY=0;entryDx=0;entryDy=0;" parent="1" source="4WFe2CDnD_xLI0Ukkx9i-9" target="4WFe2CDnD_xLI0Ukkx9i-117" edge="1">
          <mxGeometry width="50" height="50" relative="1" as="geometry">
            <mxPoint x="560" y="450" as="sourcePoint" />
            <mxPoint x="480" y="490" as="targetPoint" />
          </mxGeometry>
        </mxCell>
        <mxCell id="4WFe2CDnD_xLI0Ukkx9i-133" value="" style="endArrow=classic;html=1;rounded=0;entryX=0.5;entryY=0;entryDx=0;entryDy=0;exitX=0.116;exitY=1.013;exitDx=0;exitDy=0;exitPerimeter=0;" parent="1" source="4WFe2CDnD_xLI0Ukkx9i-9" target="4WFe2CDnD_xLI0Ukkx9i-118" edge="1">
          <mxGeometry width="50" height="50" relative="1" as="geometry">
            <mxPoint x="620" y="390" as="sourcePoint" />
            <mxPoint x="670" y="340" as="targetPoint" />
          </mxGeometry>
        </mxCell>
        <mxCell id="4WFe2CDnD_xLI0Ukkx9i-134" value="" style="endArrow=classic;html=1;rounded=0;entryX=0.5;entryY=0;entryDx=0;entryDy=0;exitX=0.25;exitY=1;exitDx=0;exitDy=0;" parent="1" source="4WFe2CDnD_xLI0Ukkx9i-9" target="4WFe2CDnD_xLI0Ukkx9i-119" edge="1">
          <mxGeometry width="50" height="50" relative="1" as="geometry">
            <mxPoint x="620" y="390" as="sourcePoint" />
            <mxPoint x="670" y="340" as="targetPoint" />
          </mxGeometry>
        </mxCell>
        <mxCell id="4WFe2CDnD_xLI0Ukkx9i-135" value="" style="endArrow=classic;html=1;rounded=0;entryX=0.5;entryY=0;entryDx=0;entryDy=0;exitX=0.5;exitY=1;exitDx=0;exitDy=0;" parent="1" source="4WFe2CDnD_xLI0Ukkx9i-9" target="4WFe2CDnD_xLI0Ukkx9i-121" edge="1">
          <mxGeometry width="50" height="50" relative="1" as="geometry">
            <mxPoint x="560" y="530" as="sourcePoint" />
            <mxPoint x="610" y="480" as="targetPoint" />
          </mxGeometry>
        </mxCell>
        <mxCell id="4WFe2CDnD_xLI0Ukkx9i-136" value="" style="endArrow=classic;html=1;rounded=0;exitX=0.837;exitY=1.007;exitDx=0;exitDy=0;exitPerimeter=0;entryX=0.5;entryY=0;entryDx=0;entryDy=0;" parent="1" source="4WFe2CDnD_xLI0Ukkx9i-9" target="4WFe2CDnD_xLI0Ukkx9i-124" edge="1">
          <mxGeometry width="50" height="50" relative="1" as="geometry">
            <mxPoint x="560" y="580" as="sourcePoint" />
            <mxPoint x="681" y="534" as="targetPoint" />
          </mxGeometry>
        </mxCell>
        <mxCell id="4WFe2CDnD_xLI0Ukkx9i-137" value="" style="endArrow=classic;html=1;rounded=0;entryX=0.332;entryY=0.049;entryDx=0;entryDy=0;entryPerimeter=0;exitX=0.978;exitY=0.951;exitDx=0;exitDy=0;exitPerimeter=0;" parent="1" source="4WFe2CDnD_xLI0Ukkx9i-9" target="4WFe2CDnD_xLI0Ukkx9i-126" edge="1">
          <mxGeometry width="50" height="50" relative="1" as="geometry">
            <mxPoint x="680" y="460" as="sourcePoint" />
            <mxPoint x="690" y="520" as="targetPoint" />
          </mxGeometry>
        </mxCell>
        <mxCell id="4WFe2CDnD_xLI0Ukkx9i-138" value="" style="endArrow=classic;html=1;rounded=0;entryX=0;entryY=0;entryDx=0;entryDy=0;exitX=1;exitY=0.75;exitDx=0;exitDy=0;" parent="1" source="4WFe2CDnD_xLI0Ukkx9i-9" target="4WFe2CDnD_xLI0Ukkx9i-125" edge="1">
          <mxGeometry width="50" height="50" relative="1" as="geometry">
            <mxPoint x="630" y="360" as="sourcePoint" />
            <mxPoint x="680" y="310" as="targetPoint" />
          </mxGeometry>
        </mxCell>
        <mxCell id="4WFe2CDnD_xLI0Ukkx9i-139" value="" style="endArrow=classic;html=1;rounded=0;entryX=0;entryY=1;entryDx=0;entryDy=0;exitX=1;exitY=0.25;exitDx=0;exitDy=0;" parent="1" source="4WFe2CDnD_xLI0Ukkx9i-9" target="4WFe2CDnD_xLI0Ukkx9i-129" edge="1">
          <mxGeometry width="50" height="50" relative="1" as="geometry">
            <mxPoint x="720" y="360" as="sourcePoint" />
            <mxPoint x="770" y="310" as="targetPoint" />
          </mxGeometry>
        </mxCell>
        <mxCell id="4WFe2CDnD_xLI0Ukkx9i-140" value="" style="endArrow=classic;html=1;rounded=0;exitX=0.951;exitY=0.005;exitDx=0;exitDy=0;entryX=0;entryY=1;entryDx=0;entryDy=0;exitPerimeter=0;" parent="1" source="4WFe2CDnD_xLI0Ukkx9i-9" target="4WFe2CDnD_xLI0Ukkx9i-116" edge="1">
          <mxGeometry width="50" height="50" relative="1" as="geometry">
            <mxPoint x="720" y="360" as="sourcePoint" />
            <mxPoint x="770" y="310" as="targetPoint" />
          </mxGeometry>
        </mxCell>
        <mxCell id="4WFe2CDnD_xLI0Ukkx9i-141" value="" style="endArrow=classic;html=1;rounded=0;entryX=1;entryY=1;entryDx=0;entryDy=0;exitX=0.068;exitY=0;exitDx=0;exitDy=0;exitPerimeter=0;" parent="1" source="4WFe2CDnD_xLI0Ukkx9i-9" target="4WFe2CDnD_xLI0Ukkx9i-128" edge="1">
          <mxGeometry width="50" height="50" relative="1" as="geometry">
            <mxPoint x="560" y="400" as="sourcePoint" />
            <mxPoint x="660" y="440" as="targetPoint" />
          </mxGeometry>
        </mxCell>
        <mxCell id="4WFe2CDnD_xLI0Ukkx9i-142" value="" style="endArrow=classic;html=1;rounded=0;entryX=0.971;entryY=0.651;entryDx=0;entryDy=0;entryPerimeter=0;exitX=0;exitY=0.25;exitDx=0;exitDy=0;" parent="1" source="4WFe2CDnD_xLI0Ukkx9i-9" target="4WFe2CDnD_xLI0Ukkx9i-130" edge="1">
          <mxGeometry width="50" height="50" relative="1" as="geometry">
            <mxPoint x="580" y="420" as="sourcePoint" />
            <mxPoint x="630" y="370" as="targetPoint" />
          </mxGeometry>
        </mxCell>
        <mxCell id="4WFe2CDnD_xLI0Ukkx9i-145" value="THUỘC" style="rhombus;whiteSpace=wrap;html=1;" parent="1" vertex="1">
          <mxGeometry x="1100" y="270" width="80" height="65" as="geometry" />
        </mxCell>
        <mxCell id="4WFe2CDnD_xLI0Ukkx9i-146" value="" style="endArrow=none;html=1;rounded=0;entryX=0.5;entryY=1;entryDx=0;entryDy=0;exitX=0.5;exitY=0;exitDx=0;exitDy=0;" parent="1" source="4WFe2CDnD_xLI0Ukkx9i-145" target="4WFe2CDnD_xLI0Ukkx9i-4" edge="1">
          <mxGeometry width="50" height="50" relative="1" as="geometry">
            <mxPoint x="690" y="340" as="sourcePoint" />
            <mxPoint x="740" y="290" as="targetPoint" />
          </mxGeometry>
        </mxCell>
        <mxCell id="4WFe2CDnD_xLI0Ukkx9i-147" value="" style="endArrow=none;html=1;rounded=0;exitX=0.5;exitY=1;exitDx=0;exitDy=0;" parent="1" source="4WFe2CDnD_xLI0Ukkx9i-145" edge="1">
          <mxGeometry width="50" height="50" relative="1" as="geometry">
            <mxPoint x="690" y="340" as="sourcePoint" />
            <mxPoint x="1140" y="380" as="targetPoint" />
          </mxGeometry>
        </mxCell>
        <mxCell id="4WFe2CDnD_xLI0Ukkx9i-148" value="THUỘC" style="rhombus;whiteSpace=wrap;html=1;" parent="1" vertex="1">
          <mxGeometry x="1290" y="180" width="80" height="65" as="geometry" />
        </mxCell>
        <mxCell id="4WFe2CDnD_xLI0Ukkx9i-149" value="" style="endArrow=none;html=1;rounded=0;entryX=0;entryY=0.5;entryDx=0;entryDy=0;exitX=1.009;exitY=0.655;exitDx=0;exitDy=0;exitPerimeter=0;" parent="1" source="4WFe2CDnD_xLI0Ukkx9i-4" target="4WFe2CDnD_xLI0Ukkx9i-148" edge="1">
          <mxGeometry width="50" height="50" relative="1" as="geometry">
            <mxPoint x="780" y="380" as="sourcePoint" />
            <mxPoint x="830" y="330" as="targetPoint" />
          </mxGeometry>
        </mxCell>
        <mxCell id="4WFe2CDnD_xLI0Ukkx9i-150" value="" style="endArrow=none;html=1;rounded=0;entryX=0.464;entryY=-0.013;entryDx=0;entryDy=0;exitX=0.5;exitY=1;exitDx=0;exitDy=0;entryPerimeter=0;" parent="1" source="4WFe2CDnD_xLI0Ukkx9i-148" target="4WFe2CDnD_xLI0Ukkx9i-7" edge="1">
          <mxGeometry width="50" height="50" relative="1" as="geometry">
            <mxPoint x="1150" y="250" as="sourcePoint" />
            <mxPoint x="1200" y="200" as="targetPoint" />
          </mxGeometry>
        </mxCell>
        <mxCell id="4WFe2CDnD_xLI0Ukkx9i-151" value="THUỘC" style="rhombus;whiteSpace=wrap;html=1;" parent="1" vertex="1">
          <mxGeometry x="1290" y="377.5" width="80" height="65" as="geometry" />
        </mxCell>
        <mxCell id="4WFe2CDnD_xLI0Ukkx9i-152" value="" style="endArrow=none;html=1;rounded=0;entryX=0;entryY=0.5;entryDx=0;entryDy=0;exitX=1;exitY=0.5;exitDx=0;exitDy=0;" parent="1" source="4WFe2CDnD_xLI0Ukkx9i-8" target="4WFe2CDnD_xLI0Ukkx9i-151" edge="1">
          <mxGeometry width="50" height="50" relative="1" as="geometry">
            <mxPoint x="1150" y="350" as="sourcePoint" />
            <mxPoint x="1200" y="300" as="targetPoint" />
          </mxGeometry>
        </mxCell>
        <mxCell id="4WFe2CDnD_xLI0Ukkx9i-153" value="" style="endArrow=none;html=1;rounded=0;entryX=0.5;entryY=0;entryDx=0;entryDy=0;exitX=0.461;exitY=0.984;exitDx=0;exitDy=0;exitPerimeter=0;" parent="1" source="4WFe2CDnD_xLI0Ukkx9i-7" target="4WFe2CDnD_xLI0Ukkx9i-151" edge="1">
          <mxGeometry width="50" height="50" relative="1" as="geometry">
            <mxPoint x="1150" y="350" as="sourcePoint" />
            <mxPoint x="1200" y="300" as="targetPoint" />
          </mxGeometry>
        </mxCell>
        <mxCell id="4WFe2CDnD_xLI0Ukkx9i-154" value="&lt;font style=&quot;font-size: 12px;&quot;&gt;catId&lt;/font&gt;" style="ellipse;whiteSpace=wrap;html=1;aspect=fixed;" parent="1" vertex="1">
          <mxGeometry x="1440" y="237.5" width="42.5" height="42.5" as="geometry" />
        </mxCell>
        <mxCell id="4WFe2CDnD_xLI0Ukkx9i-155" value="&lt;font style=&quot;font-size: 12px;&quot;&gt;catName&lt;/font&gt;" style="ellipse;whiteSpace=wrap;html=1;aspect=fixed;" parent="1" vertex="1">
          <mxGeometry x="1440" y="310" width="50" height="50" as="geometry" />
        </mxCell>
        <mxCell id="4WFe2CDnD_xLI0Ukkx9i-157" value="" style="endArrow=classic;html=1;rounded=0;entryX=0;entryY=0.5;entryDx=0;entryDy=0;exitX=0.957;exitY=0.007;exitDx=0;exitDy=0;exitPerimeter=0;" parent="1" source="4WFe2CDnD_xLI0Ukkx9i-7" target="4WFe2CDnD_xLI0Ukkx9i-154" edge="1">
          <mxGeometry width="50" height="50" relative="1" as="geometry">
            <mxPoint x="1260" y="420" as="sourcePoint" />
            <mxPoint x="1310" y="370" as="targetPoint" />
          </mxGeometry>
        </mxCell>
        <mxCell id="4WFe2CDnD_xLI0Ukkx9i-158" value="" style="endArrow=classic;html=1;rounded=0;entryX=0;entryY=1;entryDx=0;entryDy=0;exitX=0.93;exitY=1.007;exitDx=0;exitDy=0;exitPerimeter=0;" parent="1" source="4WFe2CDnD_xLI0Ukkx9i-7" target="4WFe2CDnD_xLI0Ukkx9i-155" edge="1">
          <mxGeometry width="50" height="50" relative="1" as="geometry">
            <mxPoint x="1340" y="290" as="sourcePoint" />
            <mxPoint x="1390" y="240" as="targetPoint" />
          </mxGeometry>
        </mxCell>
        <mxCell id="4WFe2CDnD_xLI0Ukkx9i-160" value="&lt;font style=&quot;font-size: 11px;&quot;&gt;Idproduct&lt;/font&gt;" style="ellipse;whiteSpace=wrap;html=1;aspect=fixed;" parent="1" vertex="1">
          <mxGeometry x="960" y="445" width="50" height="50" as="geometry" />
        </mxCell>
        <mxCell id="4WFe2CDnD_xLI0Ukkx9i-161" value="&lt;font style=&quot;font-size: 12px;&quot;&gt;Supplier&lt;/font&gt;" style="ellipse;whiteSpace=wrap;html=1;aspect=fixed;" parent="1" vertex="1">
          <mxGeometry x="980" y="505" width="50" height="50" as="geometry" />
        </mxCell>
        <mxCell id="4WFe2CDnD_xLI0Ukkx9i-162" value="&lt;font style=&quot;font-size: 12px;&quot;&gt;catId&lt;/font&gt;" style="ellipse;whiteSpace=wrap;html=1;aspect=fixed;" parent="1" vertex="1">
          <mxGeometry x="1028.75" y="550" width="51.25" height="51.25" as="geometry" />
        </mxCell>
        <mxCell id="4WFe2CDnD_xLI0Ukkx9i-163" value="&lt;font style=&quot;font-size: 10px;&quot;&gt;productName&lt;/font&gt;" style="ellipse;whiteSpace=wrap;html=1;aspect=fixed;" parent="1" vertex="1">
          <mxGeometry x="1150" y="550" width="60" height="60" as="geometry" />
        </mxCell>
        <mxCell id="4WFe2CDnD_xLI0Ukkx9i-164" value="&lt;font style=&quot;font-size: 10px;&quot;&gt;quantity&lt;/font&gt;" style="ellipse;whiteSpace=wrap;html=1;aspect=fixed;" parent="1" vertex="1">
          <mxGeometry x="1090" y="555" width="50" height="50" as="geometry" />
        </mxCell>
        <mxCell id="4WFe2CDnD_xLI0Ukkx9i-165" value="&lt;font style=&quot;font-size: 10px;&quot;&gt;quantity&lt;/font&gt;" style="ellipse;whiteSpace=wrap;html=1;aspect=fixed;" parent="1" vertex="1">
          <mxGeometry x="1290" y="550.63" width="50" height="50" as="geometry" />
        </mxCell>
        <mxCell id="4WFe2CDnD_xLI0Ukkx9i-166" value="&lt;span style=&quot;font-size: 10px;&quot;&gt;import_price&lt;/span&gt;" style="ellipse;whiteSpace=wrap;html=1;aspect=fixed;" parent="1" vertex="1">
          <mxGeometry x="1370" y="435" width="60" height="60" as="geometry" />
        </mxCell>
        <mxCell id="4WFe2CDnD_xLI0Ukkx9i-167" value="&lt;font style=&quot;font-size: 10px;&quot;&gt;image&lt;/font&gt;" style="ellipse;whiteSpace=wrap;html=1;aspect=fixed;" parent="1" vertex="1">
          <mxGeometry x="1225" y="555" width="50" height="50" as="geometry" />
        </mxCell>
        <mxCell id="4WFe2CDnD_xLI0Ukkx9i-168" value="&lt;span style=&quot;font-size: 10px;&quot;&gt;import_date&lt;/span&gt;" style="ellipse;whiteSpace=wrap;html=1;aspect=fixed;" parent="1" vertex="1">
          <mxGeometry x="1340" y="502.5" width="60" height="60" as="geometry" />
        </mxCell>
        <mxCell id="4WFe2CDnD_xLI0Ukkx9i-173" value="" style="endArrow=classic;html=1;rounded=0;entryX=1;entryY=0.5;entryDx=0;entryDy=0;exitX=0;exitY=0.75;exitDx=0;exitDy=0;" parent="1" source="4WFe2CDnD_xLI0Ukkx9i-8" target="4WFe2CDnD_xLI0Ukkx9i-160" edge="1">
          <mxGeometry width="50" height="50" relative="1" as="geometry">
            <mxPoint x="1100" y="490" as="sourcePoint" />
            <mxPoint x="1090" y="410" as="targetPoint" />
          </mxGeometry>
        </mxCell>
        <mxCell id="4WFe2CDnD_xLI0Ukkx9i-174" value="" style="endArrow=classic;html=1;rounded=0;entryX=1;entryY=0;entryDx=0;entryDy=0;exitX=0.051;exitY=1.003;exitDx=0;exitDy=0;exitPerimeter=0;" parent="1" source="4WFe2CDnD_xLI0Ukkx9i-8" target="4WFe2CDnD_xLI0Ukkx9i-161" edge="1">
          <mxGeometry width="50" height="50" relative="1" as="geometry">
            <mxPoint x="1040" y="460" as="sourcePoint" />
            <mxPoint x="1090" y="410" as="targetPoint" />
          </mxGeometry>
        </mxCell>
        <mxCell id="4WFe2CDnD_xLI0Ukkx9i-175" value="" style="endArrow=classic;html=1;rounded=0;entryX=0.626;entryY=0.032;entryDx=0;entryDy=0;entryPerimeter=0;exitX=0.25;exitY=1;exitDx=0;exitDy=0;" parent="1" source="4WFe2CDnD_xLI0Ukkx9i-8" target="4WFe2CDnD_xLI0Ukkx9i-162" edge="1">
          <mxGeometry width="50" height="50" relative="1" as="geometry">
            <mxPoint x="1050" y="460" as="sourcePoint" />
            <mxPoint x="1100" y="410" as="targetPoint" />
          </mxGeometry>
        </mxCell>
        <mxCell id="4WFe2CDnD_xLI0Ukkx9i-176" value="" style="endArrow=classic;html=1;rounded=0;entryX=0.5;entryY=0;entryDx=0;entryDy=0;exitX=0.5;exitY=1;exitDx=0;exitDy=0;" parent="1" source="4WFe2CDnD_xLI0Ukkx9i-8" target="4WFe2CDnD_xLI0Ukkx9i-164" edge="1">
          <mxGeometry width="50" height="50" relative="1" as="geometry">
            <mxPoint x="1050" y="460" as="sourcePoint" />
            <mxPoint x="1100" y="410" as="targetPoint" />
          </mxGeometry>
        </mxCell>
        <mxCell id="4WFe2CDnD_xLI0Ukkx9i-177" value="" style="endArrow=classic;html=1;rounded=0;entryX=0.5;entryY=0;entryDx=0;entryDy=0;exitX=0.75;exitY=1;exitDx=0;exitDy=0;" parent="1" source="4WFe2CDnD_xLI0Ukkx9i-8" target="4WFe2CDnD_xLI0Ukkx9i-163" edge="1">
          <mxGeometry width="50" height="50" relative="1" as="geometry">
            <mxPoint x="1050" y="460" as="sourcePoint" />
            <mxPoint x="1100" y="410" as="targetPoint" />
          </mxGeometry>
        </mxCell>
        <mxCell id="4WFe2CDnD_xLI0Ukkx9i-178" value="" style="endArrow=classic;html=1;rounded=0;entryX=0.289;entryY=0.036;entryDx=0;entryDy=0;exitX=0.887;exitY=1.023;exitDx=0;exitDy=0;exitPerimeter=0;entryPerimeter=0;" parent="1" source="4WFe2CDnD_xLI0Ukkx9i-8" target="4WFe2CDnD_xLI0Ukkx9i-167" edge="1">
          <mxGeometry width="50" height="50" relative="1" as="geometry">
            <mxPoint x="1050" y="460" as="sourcePoint" />
            <mxPoint x="1100" y="410" as="targetPoint" />
          </mxGeometry>
        </mxCell>
        <mxCell id="4WFe2CDnD_xLI0Ukkx9i-179" value="" style="endArrow=classic;html=1;rounded=0;exitX=0.972;exitY=0.966;exitDx=0;exitDy=0;entryX=0;entryY=0;entryDx=0;entryDy=0;exitPerimeter=0;" parent="1" source="4WFe2CDnD_xLI0Ukkx9i-8" target="4WFe2CDnD_xLI0Ukkx9i-165" edge="1">
          <mxGeometry width="50" height="50" relative="1" as="geometry">
            <mxPoint x="1250" y="510" as="sourcePoint" />
            <mxPoint x="1300" y="460" as="targetPoint" />
          </mxGeometry>
        </mxCell>
        <mxCell id="4WFe2CDnD_xLI0Ukkx9i-180" value="" style="endArrow=classic;html=1;rounded=0;exitX=1.004;exitY=0.833;exitDx=0;exitDy=0;exitPerimeter=0;entryX=0;entryY=0.5;entryDx=0;entryDy=0;" parent="1" source="4WFe2CDnD_xLI0Ukkx9i-8" target="4WFe2CDnD_xLI0Ukkx9i-168" edge="1">
          <mxGeometry width="50" height="50" relative="1" as="geometry">
            <mxPoint x="1300" y="470" as="sourcePoint" />
            <mxPoint x="1350" y="420" as="targetPoint" />
          </mxGeometry>
        </mxCell>
        <mxCell id="4WFe2CDnD_xLI0Ukkx9i-181" value="" style="endArrow=classic;html=1;rounded=0;exitX=1.007;exitY=0.674;exitDx=0;exitDy=0;exitPerimeter=0;entryX=-0.011;entryY=0.589;entryDx=0;entryDy=0;entryPerimeter=0;" parent="1" source="4WFe2CDnD_xLI0Ukkx9i-8" target="4WFe2CDnD_xLI0Ukkx9i-166" edge="1">
          <mxGeometry width="50" height="50" relative="1" as="geometry">
            <mxPoint x="1300" y="470" as="sourcePoint" />
            <mxPoint x="1350" y="420" as="targetPoint" />
          </mxGeometry>
        </mxCell>
        <mxCell id="4WFe2CDnD_xLI0Ukkx9i-182" value="&lt;font style=&quot;font-size: 10px;&quot;&gt;orderId&lt;/font&gt;" style="ellipse;whiteSpace=wrap;html=1;aspect=fixed;" parent="1" vertex="1">
          <mxGeometry x="80" y="590" width="50" height="50" as="geometry" />
        </mxCell>
        <mxCell id="4WFe2CDnD_xLI0Ukkx9i-183" value="&lt;font style=&quot;font-size: 10px;&quot;&gt;hotenkhach&lt;/font&gt;" style="ellipse;whiteSpace=wrap;html=1;aspect=fixed;" parent="1" vertex="1">
          <mxGeometry x="75" y="650" width="60" height="60" as="geometry" />
        </mxCell>
        <mxCell id="4WFe2CDnD_xLI0Ukkx9i-184" value="sdt" style="ellipse;whiteSpace=wrap;html=1;aspect=fixed;" parent="1" vertex="1">
          <mxGeometry x="80" y="720" width="50" height="50" as="geometry" />
        </mxCell>
        <mxCell id="4WFe2CDnD_xLI0Ukkx9i-185" value="&lt;font style=&quot;font-size: 10px;&quot;&gt;diachi&lt;/font&gt;" style="ellipse;whiteSpace=wrap;html=1;aspect=fixed;" parent="1" vertex="1">
          <mxGeometry x="130" y="770" width="50" height="50" as="geometry" />
        </mxCell>
        <mxCell id="4WFe2CDnD_xLI0Ukkx9i-186" value="&lt;font style=&quot;font-size: 10px;&quot;&gt;productId&lt;/font&gt;" style="ellipse;whiteSpace=wrap;html=1;aspect=fixed;" parent="1" vertex="1">
          <mxGeometry x="200" y="780" width="50" height="50" as="geometry" />
        </mxCell>
        <mxCell id="4WFe2CDnD_xLI0Ukkx9i-187" value="&lt;font style=&quot;font-size: 10px;&quot;&gt;productName&lt;/font&gt;" style="ellipse;whiteSpace=wrap;html=1;aspect=fixed;" parent="1" vertex="1">
          <mxGeometry x="270" y="770" width="70" height="70" as="geometry" />
        </mxCell>
        <mxCell id="4WFe2CDnD_xLI0Ukkx9i-188" value="&lt;font style=&quot;font-size: 10px;&quot;&gt;quantity&lt;/font&gt;" style="ellipse;whiteSpace=wrap;html=1;aspect=fixed;" parent="1" vertex="1">
          <mxGeometry x="360" y="780" width="50" height="50" as="geometry" />
        </mxCell>
        <mxCell id="4WFe2CDnD_xLI0Ukkx9i-189" value="price" style="ellipse;whiteSpace=wrap;html=1;aspect=fixed;" parent="1" vertex="1">
          <mxGeometry x="425" y="780" width="50" height="50" as="geometry" />
        </mxCell>
        <mxCell id="4WFe2CDnD_xLI0Ukkx9i-190" value="&lt;font style=&quot;font-size: 10px;&quot;&gt;image&lt;/font&gt;" style="ellipse;whiteSpace=wrap;html=1;aspect=fixed;" parent="1" vertex="1">
          <mxGeometry x="490" y="780" width="50" height="50" as="geometry" />
        </mxCell>
        <mxCell id="4WFe2CDnD_xLI0Ukkx9i-191" value="&lt;font style=&quot;font-size: 10px;&quot;&gt;paid_date&lt;/font&gt;" style="ellipse;whiteSpace=wrap;html=1;aspect=fixed;" parent="1" vertex="1">
          <mxGeometry x="560" y="770" width="50" height="50" as="geometry" />
        </mxCell>
        <mxCell id="4WFe2CDnD_xLI0Ukkx9i-192" value="status" style="ellipse;whiteSpace=wrap;html=1;aspect=fixed;" parent="1" vertex="1">
          <mxGeometry x="580" y="715" width="50" height="50" as="geometry" />
        </mxCell>
        <mxCell id="4WFe2CDnD_xLI0Ukkx9i-193" value="&lt;font style=&quot;font-size: 11px;&quot;&gt;confirm_date&lt;/font&gt;" style="ellipse;whiteSpace=wrap;html=1;aspect=fixed;" parent="1" vertex="1">
          <mxGeometry x="570" y="630" width="70" height="70" as="geometry" />
        </mxCell>
        <mxCell id="4WFe2CDnD_xLI0Ukkx9i-196" value="" style="endArrow=classic;html=1;rounded=0;exitX=0;exitY=0.5;exitDx=0;exitDy=0;entryX=1;entryY=0.5;entryDx=0;entryDy=0;" parent="1" source="4WFe2CDnD_xLI0Ukkx9i-5" target="4WFe2CDnD_xLI0Ukkx9i-182" edge="1">
          <mxGeometry width="50" height="50" relative="1" as="geometry">
            <mxPoint x="290" y="690" as="sourcePoint" />
            <mxPoint x="340" y="640" as="targetPoint" />
          </mxGeometry>
        </mxCell>
        <mxCell id="4WFe2CDnD_xLI0Ukkx9i-197" value="" style="endArrow=classic;html=1;rounded=0;entryX=1;entryY=0;entryDx=0;entryDy=0;exitX=0;exitY=0.75;exitDx=0;exitDy=0;" parent="1" source="4WFe2CDnD_xLI0Ukkx9i-5" target="4WFe2CDnD_xLI0Ukkx9i-183" edge="1">
          <mxGeometry width="50" height="50" relative="1" as="geometry">
            <mxPoint x="500" y="520" as="sourcePoint" />
            <mxPoint x="550" y="470" as="targetPoint" />
          </mxGeometry>
        </mxCell>
        <mxCell id="4WFe2CDnD_xLI0Ukkx9i-198" value="" style="endArrow=classic;html=1;rounded=0;entryX=1;entryY=0;entryDx=0;entryDy=0;exitX=0.025;exitY=0.944;exitDx=0;exitDy=0;exitPerimeter=0;" parent="1" source="4WFe2CDnD_xLI0Ukkx9i-5" target="4WFe2CDnD_xLI0Ukkx9i-184" edge="1">
          <mxGeometry width="50" height="50" relative="1" as="geometry">
            <mxPoint x="270" y="620" as="sourcePoint" />
            <mxPoint x="550" y="480" as="targetPoint" />
          </mxGeometry>
        </mxCell>
        <mxCell id="4WFe2CDnD_xLI0Ukkx9i-199" value="" style="endArrow=classic;html=1;rounded=0;exitX=0.131;exitY=1.001;exitDx=0;exitDy=0;exitPerimeter=0;entryX=0.5;entryY=0;entryDx=0;entryDy=0;" parent="1" source="4WFe2CDnD_xLI0Ukkx9i-5" target="4WFe2CDnD_xLI0Ukkx9i-185" edge="1">
          <mxGeometry width="50" height="50" relative="1" as="geometry">
            <mxPoint x="420" y="720" as="sourcePoint" />
            <mxPoint x="470" y="670" as="targetPoint" />
          </mxGeometry>
        </mxCell>
        <mxCell id="4WFe2CDnD_xLI0Ukkx9i-200" value="" style="endArrow=classic;html=1;rounded=0;entryX=0.5;entryY=0;entryDx=0;entryDy=0;exitX=0.25;exitY=1;exitDx=0;exitDy=0;" parent="1" source="4WFe2CDnD_xLI0Ukkx9i-5" target="4WFe2CDnD_xLI0Ukkx9i-186" edge="1">
          <mxGeometry width="50" height="50" relative="1" as="geometry">
            <mxPoint x="420" y="720" as="sourcePoint" />
            <mxPoint x="470" y="670" as="targetPoint" />
          </mxGeometry>
        </mxCell>
        <mxCell id="4WFe2CDnD_xLI0Ukkx9i-201" value="" style="endArrow=classic;html=1;rounded=0;exitX=0.346;exitY=1;exitDx=0;exitDy=0;exitPerimeter=0;entryX=0.469;entryY=0;entryDx=0;entryDy=0;entryPerimeter=0;" parent="1" source="4WFe2CDnD_xLI0Ukkx9i-5" target="4WFe2CDnD_xLI0Ukkx9i-187" edge="1">
          <mxGeometry width="50" height="50" relative="1" as="geometry">
            <mxPoint x="420" y="720" as="sourcePoint" />
            <mxPoint x="470" y="670" as="targetPoint" />
          </mxGeometry>
        </mxCell>
        <mxCell id="4WFe2CDnD_xLI0Ukkx9i-202" value="" style="endArrow=classic;html=1;rounded=0;exitX=0.5;exitY=1;exitDx=0;exitDy=0;entryX=0;entryY=0;entryDx=0;entryDy=0;" parent="1" source="4WFe2CDnD_xLI0Ukkx9i-5" target="4WFe2CDnD_xLI0Ukkx9i-188" edge="1">
          <mxGeometry width="50" height="50" relative="1" as="geometry">
            <mxPoint x="360" y="740" as="sourcePoint" />
            <mxPoint x="410" y="690" as="targetPoint" />
          </mxGeometry>
        </mxCell>
        <mxCell id="4WFe2CDnD_xLI0Ukkx9i-203" value="" style="endArrow=classic;html=1;rounded=0;exitX=0.606;exitY=1;exitDx=0;exitDy=0;exitPerimeter=0;entryX=0.132;entryY=0.099;entryDx=0;entryDy=0;entryPerimeter=0;" parent="1" source="4WFe2CDnD_xLI0Ukkx9i-5" target="4WFe2CDnD_xLI0Ukkx9i-189" edge="1">
          <mxGeometry width="50" height="50" relative="1" as="geometry">
            <mxPoint x="360" y="710" as="sourcePoint" />
            <mxPoint x="410" y="660" as="targetPoint" />
          </mxGeometry>
        </mxCell>
        <mxCell id="4WFe2CDnD_xLI0Ukkx9i-204" value="" style="endArrow=classic;html=1;rounded=0;exitX=0.75;exitY=1;exitDx=0;exitDy=0;entryX=0;entryY=0;entryDx=0;entryDy=0;" parent="1" source="4WFe2CDnD_xLI0Ukkx9i-5" target="4WFe2CDnD_xLI0Ukkx9i-190" edge="1">
          <mxGeometry width="50" height="50" relative="1" as="geometry">
            <mxPoint x="360" y="740" as="sourcePoint" />
            <mxPoint x="410" y="690" as="targetPoint" />
          </mxGeometry>
        </mxCell>
        <mxCell id="4WFe2CDnD_xLI0Ukkx9i-205" value="" style="endArrow=classic;html=1;rounded=0;exitX=0.941;exitY=1.009;exitDx=0;exitDy=0;exitPerimeter=0;entryX=0.077;entryY=0.179;entryDx=0;entryDy=0;entryPerimeter=0;" parent="1" source="4WFe2CDnD_xLI0Ukkx9i-5" target="4WFe2CDnD_xLI0Ukkx9i-191" edge="1">
          <mxGeometry width="50" height="50" relative="1" as="geometry">
            <mxPoint x="480" y="710" as="sourcePoint" />
            <mxPoint x="530" y="660" as="targetPoint" />
          </mxGeometry>
        </mxCell>
        <mxCell id="4WFe2CDnD_xLI0Ukkx9i-206" value="" style="endArrow=classic;html=1;rounded=0;exitX=1;exitY=0.75;exitDx=0;exitDy=0;entryX=-0.029;entryY=0.451;entryDx=0;entryDy=0;entryPerimeter=0;" parent="1" source="4WFe2CDnD_xLI0Ukkx9i-5" target="4WFe2CDnD_xLI0Ukkx9i-192" edge="1">
          <mxGeometry width="50" height="50" relative="1" as="geometry">
            <mxPoint x="480" y="710" as="sourcePoint" />
            <mxPoint x="530" y="660" as="targetPoint" />
          </mxGeometry>
        </mxCell>
        <mxCell id="4WFe2CDnD_xLI0Ukkx9i-207" value="" style="endArrow=classic;html=1;rounded=0;exitX=1.012;exitY=0.547;exitDx=0;exitDy=0;exitPerimeter=0;entryX=0;entryY=0.5;entryDx=0;entryDy=0;" parent="1" source="4WFe2CDnD_xLI0Ukkx9i-5" target="4WFe2CDnD_xLI0Ukkx9i-193" edge="1">
          <mxGeometry width="50" height="50" relative="1" as="geometry">
            <mxPoint x="480" y="710" as="sourcePoint" />
            <mxPoint x="530" y="660" as="targetPoint" />
          </mxGeometry>
        </mxCell>
        <mxCell id="4WFe2CDnD_xLI0Ukkx9i-208" value="&lt;font style=&quot;font-size: 10px;&quot;&gt;cart_online_&lt;br&gt;Id&lt;/font&gt;" style="ellipse;whiteSpace=wrap;html=1;aspect=fixed;" parent="1" vertex="1">
          <mxGeometry x="1335" y="755" width="60" height="60" as="geometry" />
        </mxCell>
        <mxCell id="4WFe2CDnD_xLI0Ukkx9i-209" value="&lt;font style=&quot;font-size: 10px;&quot;&gt;productId&lt;/font&gt;" style="ellipse;whiteSpace=wrap;html=1;aspect=fixed;" parent="1" vertex="1">
          <mxGeometry x="1340" y="690" width="60" height="60" as="geometry" />
        </mxCell>
        <mxCell id="4WFe2CDnD_xLI0Ukkx9i-210" value="&lt;font style=&quot;font-size: 10px;&quot;&gt;product&lt;br&gt;Name&lt;/font&gt;" style="ellipse;whiteSpace=wrap;html=1;aspect=fixed;" parent="1" vertex="1">
          <mxGeometry x="1340" y="620" width="60" height="60" as="geometry" />
        </mxCell>
        <mxCell id="4WFe2CDnD_xLI0Ukkx9i-211" value="price" style="ellipse;whiteSpace=wrap;html=1;aspect=fixed;" parent="1" vertex="1">
          <mxGeometry x="680" y="660" width="50" height="50" as="geometry" />
        </mxCell>
        <mxCell id="4WFe2CDnD_xLI0Ukkx9i-212" value="&lt;font style=&quot;font-size: 10px;&quot;&gt;quantity&lt;/font&gt;" style="ellipse;whiteSpace=wrap;html=1;aspect=fixed;" parent="1" vertex="1">
          <mxGeometry x="680" y="720" width="50" height="50" as="geometry" />
        </mxCell>
        <mxCell id="4WFe2CDnD_xLI0Ukkx9i-213" value="&lt;font style=&quot;font-size: 10px;&quot;&gt;image&lt;/font&gt;" style="ellipse;whiteSpace=wrap;html=1;aspect=fixed;" parent="1" vertex="1">
          <mxGeometry x="700" y="790" width="50" height="50" as="geometry" />
        </mxCell>
        <mxCell id="4WFe2CDnD_xLI0Ukkx9i-214" value="&lt;font style=&quot;font-size: 10px;&quot;&gt;code_cart_online&lt;/font&gt;" style="ellipse;whiteSpace=wrap;html=1;aspect=fixed;" parent="1" vertex="1">
          <mxGeometry x="1245" y="795" width="80" height="80" as="geometry" />
        </mxCell>
        <mxCell id="4WFe2CDnD_xLI0Ukkx9i-215" value="&lt;font style=&quot;font-size: 10px;&quot;&gt;paid_date&lt;/font&gt;" style="ellipse;whiteSpace=wrap;html=1;aspect=fixed;" parent="1" vertex="1">
          <mxGeometry x="765" y="810" width="50" height="50" as="geometry" />
        </mxCell>
        <mxCell id="4WFe2CDnD_xLI0Ukkx9i-216" value="&lt;font style=&quot;font-size: 10px;&quot;&gt;hovaten&lt;/font&gt;" style="ellipse;whiteSpace=wrap;html=1;aspect=fixed;" parent="1" vertex="1">
          <mxGeometry x="1080" y="805" width="60" height="60" as="geometry" />
        </mxCell>
        <mxCell id="4WFe2CDnD_xLI0Ukkx9i-217" value="sdt" style="ellipse;whiteSpace=wrap;html=1;aspect=fixed;" parent="1" vertex="1">
          <mxGeometry x="825" y="810" width="50" height="50" as="geometry" />
        </mxCell>
        <mxCell id="4WFe2CDnD_xLI0Ukkx9i-218" value="&lt;font style=&quot;font-size: 10px;&quot;&gt;diachi&lt;/font&gt;" style="ellipse;whiteSpace=wrap;html=1;aspect=fixed;" parent="1" vertex="1">
          <mxGeometry x="890" y="810" width="50" height="50" as="geometry" />
        </mxCell>
        <mxCell id="4WFe2CDnD_xLI0Ukkx9i-219" value="&lt;font style=&quot;font-size: 10px;&quot;&gt;regisId&lt;/font&gt;" style="ellipse;whiteSpace=wrap;html=1;aspect=fixed;" parent="1" vertex="1">
          <mxGeometry x="75" y="530" width="50" height="50" as="geometry" />
        </mxCell>
        <mxCell id="4WFe2CDnD_xLI0Ukkx9i-220" value="" style="endArrow=classic;html=1;rounded=0;entryX=1;entryY=0.5;entryDx=0;entryDy=0;exitX=-0.005;exitY=0.106;exitDx=0;exitDy=0;exitPerimeter=0;" parent="1" source="4WFe2CDnD_xLI0Ukkx9i-5" target="4WFe2CDnD_xLI0Ukkx9i-219" edge="1">
          <mxGeometry width="50" height="50" relative="1" as="geometry">
            <mxPoint x="267" y="559" as="sourcePoint" />
            <mxPoint x="760" y="390" as="targetPoint" />
          </mxGeometry>
        </mxCell>
        <mxCell id="4WFe2CDnD_xLI0Ukkx9i-221" value="&lt;font style=&quot;font-size: 10px;&quot;&gt;regisId&lt;/font&gt;" style="ellipse;whiteSpace=wrap;html=1;aspect=fixed;" parent="1" vertex="1">
          <mxGeometry x="680" y="601.25" width="50" height="50" as="geometry" />
        </mxCell>
        <mxCell id="4WFe2CDnD_xLI0Ukkx9i-224" value="&lt;font style=&quot;font-size: 10px;&quot;&gt;paid_type&lt;/font&gt;" style="ellipse;whiteSpace=wrap;html=1;aspect=fixed;" parent="1" vertex="1">
          <mxGeometry x="950" y="810" width="50" height="50" as="geometry" />
        </mxCell>
        <mxCell id="4WFe2CDnD_xLI0Ukkx9i-225" value="&lt;font style=&quot;font-size: 11px;&quot;&gt;confirm_date&lt;/font&gt;" style="ellipse;whiteSpace=wrap;html=1;aspect=fixed;" parent="1" vertex="1">
          <mxGeometry x="1155" y="800" width="70" height="70" as="geometry" />
        </mxCell>
        <mxCell id="4WFe2CDnD_xLI0Ukkx9i-226" value="status" style="ellipse;whiteSpace=wrap;html=1;aspect=fixed;" parent="1" vertex="1">
          <mxGeometry x="1010" y="810" width="50" height="50" as="geometry" />
        </mxCell>
        <mxCell id="4WFe2CDnD_xLI0Ukkx9i-227" value="" style="endArrow=classic;html=1;rounded=0;exitX=0;exitY=0.5;exitDx=0;exitDy=0;entryX=1;entryY=0.5;entryDx=0;entryDy=0;" parent="1" source="4WFe2CDnD_xLI0Ukkx9i-6" target="4WFe2CDnD_xLI0Ukkx9i-221" edge="1">
          <mxGeometry width="50" height="50" relative="1" as="geometry">
            <mxPoint x="710" y="450" as="sourcePoint" />
            <mxPoint x="760" y="400" as="targetPoint" />
          </mxGeometry>
        </mxCell>
        <mxCell id="4WFe2CDnD_xLI0Ukkx9i-228" value="" style="endArrow=classic;html=1;rounded=0;exitX=0.002;exitY=0.683;exitDx=0;exitDy=0;entryX=0.957;entryY=0.355;entryDx=0;entryDy=0;entryPerimeter=0;exitPerimeter=0;" parent="1" source="4WFe2CDnD_xLI0Ukkx9i-6" target="4WFe2CDnD_xLI0Ukkx9i-211" edge="1">
          <mxGeometry width="50" height="50" relative="1" as="geometry">
            <mxPoint x="840" y="600" as="sourcePoint" />
            <mxPoint x="775" y="615" as="targetPoint" />
          </mxGeometry>
        </mxCell>
        <mxCell id="4WFe2CDnD_xLI0Ukkx9i-229" value="" style="endArrow=classic;html=1;rounded=0;exitX=0.072;exitY=1.013;exitDx=0;exitDy=0;exitPerimeter=0;entryX=1;entryY=0;entryDx=0;entryDy=0;" parent="1" source="4WFe2CDnD_xLI0Ukkx9i-6" target="4WFe2CDnD_xLI0Ukkx9i-212" edge="1">
          <mxGeometry width="50" height="50" relative="1" as="geometry">
            <mxPoint x="750" y="690" as="sourcePoint" />
            <mxPoint x="800" y="640" as="targetPoint" />
          </mxGeometry>
        </mxCell>
        <mxCell id="4WFe2CDnD_xLI0Ukkx9i-230" value="" style="endArrow=classic;html=1;rounded=0;exitX=0.174;exitY=1.013;exitDx=0;exitDy=0;exitPerimeter=0;entryX=1;entryY=0;entryDx=0;entryDy=0;" parent="1" source="4WFe2CDnD_xLI0Ukkx9i-6" target="4WFe2CDnD_xLI0Ukkx9i-213" edge="1">
          <mxGeometry width="50" height="50" relative="1" as="geometry">
            <mxPoint x="750" y="730" as="sourcePoint" />
            <mxPoint x="800" y="680" as="targetPoint" />
          </mxGeometry>
        </mxCell>
        <mxCell id="4WFe2CDnD_xLI0Ukkx9i-231" value="" style="endArrow=classic;html=1;rounded=0;exitX=0.25;exitY=1;exitDx=0;exitDy=0;entryX=0.5;entryY=0;entryDx=0;entryDy=0;" parent="1" source="4WFe2CDnD_xLI0Ukkx9i-6" target="4WFe2CDnD_xLI0Ukkx9i-215" edge="1">
          <mxGeometry width="50" height="50" relative="1" as="geometry">
            <mxPoint x="750" y="730" as="sourcePoint" />
            <mxPoint x="800" y="680" as="targetPoint" />
          </mxGeometry>
        </mxCell>
        <mxCell id="4WFe2CDnD_xLI0Ukkx9i-232" value="" style="endArrow=classic;html=1;rounded=0;exitX=0.358;exitY=1.013;exitDx=0;exitDy=0;exitPerimeter=0;entryX=0.5;entryY=0;entryDx=0;entryDy=0;" parent="1" source="4WFe2CDnD_xLI0Ukkx9i-6" target="4WFe2CDnD_xLI0Ukkx9i-217" edge="1">
          <mxGeometry width="50" height="50" relative="1" as="geometry">
            <mxPoint x="750" y="730" as="sourcePoint" />
            <mxPoint x="800" y="680" as="targetPoint" />
          </mxGeometry>
        </mxCell>
        <mxCell id="4WFe2CDnD_xLI0Ukkx9i-233" value="" style="endArrow=classic;html=1;rounded=0;exitX=0.5;exitY=1;exitDx=0;exitDy=0;entryX=0.4;entryY=0;entryDx=0;entryDy=0;entryPerimeter=0;" parent="1" source="4WFe2CDnD_xLI0Ukkx9i-6" target="4WFe2CDnD_xLI0Ukkx9i-218" edge="1">
          <mxGeometry width="50" height="50" relative="1" as="geometry">
            <mxPoint x="750" y="730" as="sourcePoint" />
            <mxPoint x="800" y="680" as="targetPoint" />
          </mxGeometry>
        </mxCell>
        <mxCell id="4WFe2CDnD_xLI0Ukkx9i-234" value="" style="endArrow=classic;html=1;rounded=0;exitX=0.602;exitY=1.007;exitDx=0;exitDy=0;exitPerimeter=0;entryX=0.4;entryY=0;entryDx=0;entryDy=0;entryPerimeter=0;" parent="1" source="4WFe2CDnD_xLI0Ukkx9i-6" target="4WFe2CDnD_xLI0Ukkx9i-224" edge="1">
          <mxGeometry width="50" height="50" relative="1" as="geometry">
            <mxPoint x="1040" y="730" as="sourcePoint" />
            <mxPoint x="1090" y="680" as="targetPoint" />
          </mxGeometry>
        </mxCell>
        <mxCell id="4WFe2CDnD_xLI0Ukkx9i-235" value="" style="endArrow=classic;html=1;rounded=0;exitX=0.698;exitY=1.007;exitDx=0;exitDy=0;entryX=0.4;entryY=0;entryDx=0;entryDy=0;entryPerimeter=0;exitPerimeter=0;" parent="1" source="4WFe2CDnD_xLI0Ukkx9i-6" target="4WFe2CDnD_xLI0Ukkx9i-226" edge="1">
          <mxGeometry width="50" height="50" relative="1" as="geometry">
            <mxPoint x="1040" y="730" as="sourcePoint" />
            <mxPoint x="1090" y="680" as="targetPoint" />
          </mxGeometry>
        </mxCell>
        <mxCell id="4WFe2CDnD_xLI0Ukkx9i-236" value="" style="endArrow=classic;html=1;rounded=0;entryX=0.167;entryY=0.083;entryDx=0;entryDy=0;entryPerimeter=0;" parent="1" target="4WFe2CDnD_xLI0Ukkx9i-216" edge="1">
          <mxGeometry width="50" height="50" relative="1" as="geometry">
            <mxPoint x="930" y="620" as="sourcePoint" />
            <mxPoint x="1090" y="680" as="targetPoint" />
          </mxGeometry>
        </mxCell>
        <mxCell id="4WFe2CDnD_xLI0Ukkx9i-237" value="" style="endArrow=classic;html=1;rounded=0;entryX=0;entryY=0;entryDx=0;entryDy=0;exitX=0.971;exitY=0.966;exitDx=0;exitDy=0;exitPerimeter=0;" parent="1" source="4WFe2CDnD_xLI0Ukkx9i-6" target="4WFe2CDnD_xLI0Ukkx9i-225" edge="1">
          <mxGeometry width="50" height="50" relative="1" as="geometry">
            <mxPoint x="950" y="620" as="sourcePoint" />
            <mxPoint x="1090" y="680" as="targetPoint" />
          </mxGeometry>
        </mxCell>
        <mxCell id="4WFe2CDnD_xLI0Ukkx9i-238" value="" style="endArrow=classic;html=1;rounded=0;exitX=1.006;exitY=0.883;exitDx=0;exitDy=0;exitPerimeter=0;entryX=0.188;entryY=0.063;entryDx=0;entryDy=0;entryPerimeter=0;" parent="1" source="4WFe2CDnD_xLI0Ukkx9i-6" target="4WFe2CDnD_xLI0Ukkx9i-214" edge="1">
          <mxGeometry width="50" height="50" relative="1" as="geometry">
            <mxPoint x="1150" y="730" as="sourcePoint" />
            <mxPoint x="1200" y="680" as="targetPoint" />
          </mxGeometry>
        </mxCell>
        <mxCell id="4WFe2CDnD_xLI0Ukkx9i-239" value="" style="endArrow=classic;html=1;rounded=0;exitX=1;exitY=0.75;exitDx=0;exitDy=0;entryX=0.007;entryY=0.373;entryDx=0;entryDy=0;entryPerimeter=0;" parent="1" source="4WFe2CDnD_xLI0Ukkx9i-6" target="4WFe2CDnD_xLI0Ukkx9i-208" edge="1">
          <mxGeometry width="50" height="50" relative="1" as="geometry">
            <mxPoint x="1150" y="730" as="sourcePoint" />
            <mxPoint x="1200" y="680" as="targetPoint" />
          </mxGeometry>
        </mxCell>
        <mxCell id="4WFe2CDnD_xLI0Ukkx9i-240" value="" style="endArrow=classic;html=1;rounded=0;entryX=0;entryY=0.5;entryDx=0;entryDy=0;exitX=1.007;exitY=0.657;exitDx=0;exitDy=0;exitPerimeter=0;" parent="1" source="4WFe2CDnD_xLI0Ukkx9i-6" target="4WFe2CDnD_xLI0Ukkx9i-209" edge="1">
          <mxGeometry width="50" height="50" relative="1" as="geometry">
            <mxPoint x="1100" y="520" as="sourcePoint" />
            <mxPoint x="1150" y="470" as="targetPoint" />
          </mxGeometry>
        </mxCell>
        <mxCell id="4WFe2CDnD_xLI0Ukkx9i-242" value="" style="endArrow=classic;html=1;rounded=0;exitX=1.002;exitY=0.571;exitDx=0;exitDy=0;exitPerimeter=0;entryX=0;entryY=0.5;entryDx=0;entryDy=0;" parent="1" source="4WFe2CDnD_xLI0Ukkx9i-6" target="4WFe2CDnD_xLI0Ukkx9i-210" edge="1">
          <mxGeometry width="50" height="50" relative="1" as="geometry">
            <mxPoint x="990" y="600" as="sourcePoint" />
            <mxPoint x="1040" y="550" as="targetPoint" />
          </mxGeometry>
        </mxCell>
        <mxCell id="4WFe2CDnD_xLI0Ukkx9i-243" value="&lt;font style=&quot;font-size: 10px;&quot;&gt;adminId&lt;/font&gt;" style="ellipse;whiteSpace=wrap;html=1;aspect=fixed;" parent="1" vertex="1">
          <mxGeometry x="10" y="282.5" width="50" height="50" as="geometry" />
        </mxCell>
        <mxCell id="4WFe2CDnD_xLI0Ukkx9i-244" value="&lt;font style=&quot;font-size: 10px;&quot;&gt;adminName&lt;/font&gt;" style="ellipse;whiteSpace=wrap;html=1;aspect=fixed;" parent="1" vertex="1">
          <mxGeometry x="180" y="282.5" width="60" height="60" as="geometry" />
        </mxCell>
        <mxCell id="4WFe2CDnD_xLI0Ukkx9i-245" value="&lt;font style=&quot;font-size: 10px;&quot;&gt;adminUser&lt;/font&gt;" style="ellipse;whiteSpace=wrap;html=1;aspect=fixed;" parent="1" vertex="1">
          <mxGeometry x="90" y="280" width="60" height="60" as="geometry" />
        </mxCell>
        <mxCell id="4WFe2CDnD_xLI0Ukkx9i-246" value="&lt;font style=&quot;font-size: 10px;&quot;&gt;adminPass&lt;/font&gt;" style="ellipse;whiteSpace=wrap;html=1;aspect=fixed;" parent="1" vertex="1">
          <mxGeometry x="180" y="360" width="60" height="60" as="geometry" />
        </mxCell>
        <mxCell id="4WFe2CDnD_xLI0Ukkx9i-247" value="&lt;font style=&quot;font-size: 10px;&quot;&gt;level&lt;/font&gt;" style="ellipse;whiteSpace=wrap;html=1;aspect=fixed;" parent="1" vertex="1">
          <mxGeometry x="190" y="440" width="50" height="50" as="geometry" />
        </mxCell>
        <mxCell id="4WFe2CDnD_xLI0Ukkx9i-249" value="" style="endArrow=classic;html=1;rounded=0;entryX=0;entryY=1;entryDx=0;entryDy=0;" parent="1" target="4WFe2CDnD_xLI0Ukkx9i-244" edge="1">
          <mxGeometry width="50" height="50" relative="1" as="geometry">
            <mxPoint x="140" y="390" as="sourcePoint" />
            <mxPoint x="190" y="340" as="targetPoint" />
          </mxGeometry>
        </mxCell>
        <mxCell id="4WFe2CDnD_xLI0Ukkx9i-250" value="" style="endArrow=classic;html=1;rounded=0;entryX=0.5;entryY=1;entryDx=0;entryDy=0;exitX=0.127;exitY=0.007;exitDx=0;exitDy=0;exitPerimeter=0;" parent="1" source="4WFe2CDnD_xLI0Ukkx9i-10" target="4WFe2CDnD_xLI0Ukkx9i-243" edge="1">
          <mxGeometry width="50" height="50" relative="1" as="geometry">
            <mxPoint x="35" y="380" as="sourcePoint" />
            <mxPoint y="310" as="targetPoint" />
          </mxGeometry>
        </mxCell>
        <mxCell id="4WFe2CDnD_xLI0Ukkx9i-251" value="" style="endArrow=classic;html=1;rounded=0;entryX=0.5;entryY=1.026;entryDx=0;entryDy=0;entryPerimeter=0;exitX=0.832;exitY=-0.003;exitDx=0;exitDy=0;exitPerimeter=0;" parent="1" source="4WFe2CDnD_xLI0Ukkx9i-10" target="4WFe2CDnD_xLI0Ukkx9i-245" edge="1">
          <mxGeometry width="50" height="50" relative="1" as="geometry">
            <mxPoint x="120" y="380" as="sourcePoint" />
            <mxPoint x="160" y="350" as="targetPoint" />
          </mxGeometry>
        </mxCell>
        <mxCell id="4WFe2CDnD_xLI0Ukkx9i-252" value="" style="endArrow=classic;html=1;rounded=0;entryX=0.021;entryY=0.654;entryDx=0;entryDy=0;entryPerimeter=0;exitX=0.999;exitY=0.287;exitDx=0;exitDy=0;exitPerimeter=0;" parent="1" source="4WFe2CDnD_xLI0Ukkx9i-10" target="4WFe2CDnD_xLI0Ukkx9i-246" edge="1">
          <mxGeometry width="50" height="50" relative="1" as="geometry">
            <mxPoint x="110" y="430" as="sourcePoint" />
            <mxPoint x="160" y="380" as="targetPoint" />
          </mxGeometry>
        </mxCell>
        <mxCell id="4WFe2CDnD_xLI0Ukkx9i-253" value="" style="endArrow=classic;html=1;rounded=0;exitX=0.985;exitY=0.948;exitDx=0;exitDy=0;exitPerimeter=0;entryX=0;entryY=0.5;entryDx=0;entryDy=0;" parent="1" source="4WFe2CDnD_xLI0Ukkx9i-10" target="4WFe2CDnD_xLI0Ukkx9i-247" edge="1">
          <mxGeometry width="50" height="50" relative="1" as="geometry">
            <mxPoint x="140" y="485" as="sourcePoint" />
            <mxPoint x="190" y="435" as="targetPoint" />
          </mxGeometry>
        </mxCell>
      </root>
    </mxGraphModel>
  </diagram>
</mxfile>
